<svg xmlns="http://www.w3.org/2000/svg" version="1.1" xmlns:xlink="http://www.w3.org/1999/xlink" xmlns:svgjs="http://svgjs.com/svgjs" width="1440" height="560" preserveAspectRatio="none" viewBox="0 0 1440 560"><g mask="url(&quot;#SvgjsMask1011&quot;)" fill="none"><rect width="1440" height="560" x="0" y="0" fill="#0e2a47"></rect><path d="M33.25 -31.54L98.2 5.96L98.2 80.96L33.25 118.46L-31.7 80.96L-31.7 5.96zM98.2 80.96L163.16 118.46L163.16 193.46L98.2 230.96L33.25 193.46L33.25 118.46zM33.25 418.46L98.2 455.96L98.2 530.96L33.25 568.46L-31.7 530.96L-31.7 455.96zM163.16 -31.54L228.11 5.96L228.11 80.96L163.16 118.46L98.2 80.96L98.2 5.96zM228.11 530.96L293.06 568.46L293.06 643.46L228.11 680.96L163.16 643.46L163.16 568.46zM293.06 193.46L358.02 230.96L358.02 305.96L293.06 343.46L228.11 305.96L228.11 230.96zM358.02 305.96L422.97 343.46L422.97 418.46L358.02 455.96L293.06 418.46L293.06 343.46zM487.93 80.96L552.88 118.46L552.88 193.46L487.93 230.96L422.97 193.46L422.97 118.46zM487.93 305.96L552.88 343.46L552.88 418.46L487.93 455.96L422.97 418.46L422.97 343.46zM422.97 418.46L487.93 455.96L487.93 530.96L422.97 568.46L358.02 530.96L358.02 455.96zM617.83 80.96L682.79 118.46L682.79 193.46L617.83 230.96L552.88 193.46L552.88 118.46zM552.88 193.46L617.83 230.96L617.83 305.96L552.88 343.46L487.93 305.96L487.93 230.96zM552.88 418.46L617.83 455.96L617.83 530.96L552.88 568.46L487.93 530.96L487.93 455.96zM747.74 80.96L812.7 118.46L812.7 193.46L747.74 230.96L682.79 193.46L682.79 118.46zM682.79 193.46L747.74 230.96L747.74 305.96L682.79 343.46L617.83 305.96L617.83 230.96zM747.74 305.96L812.7 343.46L812.7 418.46L747.74 455.96L682.79 418.46L682.79 343.46zM682.79 418.46L747.74 455.96L747.74 530.96L682.79 568.46L617.83 530.96L617.83 455.96zM812.69 -31.54L877.65 5.96L877.65 80.96L812.69 118.46L747.74 80.96L747.74 5.96zM942.6 -31.54L1007.56 5.96L1007.56 80.96L942.6 118.46L877.65 80.96L877.65 5.96zM1007.56 80.96L1072.51 118.46L1072.51 193.46L1007.56 230.96L942.6 193.46L942.6 118.46zM942.6 193.46L1007.56 230.96L1007.56 305.96L942.6 343.46L877.65 305.96L877.65 230.96zM1007.56 305.96L1072.51 343.46L1072.51 418.46L1007.56 455.96L942.6 418.46L942.6 343.46zM942.6 418.46L1007.56 455.96L1007.56 530.96L942.6 568.46L877.65 530.96L877.65 455.96zM1007.56 530.96L1072.51 568.46L1072.51 643.46L1007.56 680.96L942.6 643.46L942.6 568.46zM1072.51 -31.54L1137.46 5.96L1137.46 80.96L1072.51 118.46L1007.56 80.96L1007.56 5.96zM1072.51 193.46L1137.46 230.96L1137.46 305.96L1072.51 343.46L1007.56 305.96L1007.56 230.96zM1137.46 530.96L1202.42 568.46L1202.42 643.46L1137.46 680.96L1072.51 643.46L1072.51 568.46zM1202.42 -31.54L1267.37 5.96L1267.37 80.96L1202.42 118.46L1137.46 80.96L1137.46 5.96zM1267.37 305.96L1332.32 343.46L1332.32 418.46L1267.37 455.96L1202.42 418.46L1202.42 343.46zM1202.42 418.46L1267.37 455.96L1267.37 530.96L1202.42 568.46L1137.46 530.96L1137.46 455.96zM1332.33 -31.54L1397.28 5.96L1397.28 80.96L1332.33 118.46L1267.37 80.96L1267.37 5.96zM1397.28 80.96L1462.23 118.46L1462.23 193.46L1397.28 230.96L1332.33 193.46L1332.33 118.46zM1397.28 530.96L1462.23 568.46L1462.23 643.46L1397.28 680.96L1332.33 643.46L1332.33 568.46zM1462.23 -31.54L1527.19 5.96L1527.19 80.96L1462.23 118.46L1397.28 80.96L1397.28 5.96zM1462.23 193.46L1527.19 230.96L1527.19 305.96L1462.23 343.46L1397.28 305.96L1397.28 230.96zM1527.19 305.96L1592.14 343.46L1592.14 418.46L1527.19 455.96L1462.23 418.46L1462.23 343.46z" stroke="#03305d" stroke-width="2"></path><path d="M25.75 -31.54 a7.5 7.5 0 1 0 15 0 a7.5 7.5 0 1 0 -15 0zM90.7 5.96 a7.5 7.5 0 1 0 15 0 a7.5 7.5 0 1 0 -15 0zM90.7 80.96 a7.5 7.5 0 1 0 15 0 a7.5 7.5 0 1 0 -15 0zM25.75 118.46 a7.5 7.5 0 1 0 15 0 a7.5 7.5 0 1 0 -15 0zM-39.2 80.96 a7.5 7.5 0 1 0 15 0 a7.5 7.5 0 1 0 -15 0zM-39.2 5.96 a7.5 7.5 0 1 0 15 0 a7.5 7.5 0 1 0 -15 0zM155.66 118.46 a7.5 7.5 0 1 0 15 0 a7.5 7.5 0 1 0 -15 0zM155.66 193.46 a7.5 7.5 0 1 0 15 0 a7.5 7.5 0 1 0 -15 0zM90.7 230.96 a7.5 7.5 0 1 0 15 0 a7.5 7.5 0 1 0 -15 0zM25.75 193.46 a7.5 7.5 0 1 0 15 0 a7.5 7.5 0 1 0 -15 0zM25.75 418.46 a7.5 7.5 0 1 0 15 0 a7.5 7.5 0 1 0 -15 0zM90.7 455.96 a7.5 7.5 0 1 0 15 0 a7.5 7.5 0 1 0 -15 0zM90.7 530.96 a7.5 7.5 0 1 0 15 0 a7.5 7.5 0 1 0 -15 0zM25.75 568.46 a7.5 7.5 0 1 0 15 0 a7.5 7.5 0 1 0 -15 0zM-39.2 530.96 a7.5 7.5 0 1 0 15 0 a7.5 7.5 0 1 0 -15 0zM-39.2 455.96 a7.5 7.5 0 1 0 15 0 a7.5 7.5 0 1 0 -15 0zM155.66 -31.54 a7.5 7.5 0 1 0 15 0 a7.5 7.5 0 1 0 -15 0zM220.61 5.96 a7.5 7.5 0 1 0 15 0 a7.5 7.5 0 1 0 -15 0zM220.61 80.96 a7.5 7.5 0 1 0 15 0 a7.5 7.5 0 1 0 -15 0zM220.61 530.96 a7.5 7.5 0 1 0 15 0 a7.5 7.5 0 1 0 -15 0zM285.56 568.46 a7.5 7.5 0 1 0 15 0 a7.5 7.5 0 1 0 -15 0zM285.56 643.46 a7.5 7.5 0 1 0 15 0 a7.5 7.5 0 1 0 -15 0zM220.61 680.96 a7.5 7.5 0 1 0 15 0 a7.5 7.5 0 1 0 -15 0zM155.66 643.46 a7.5 7.5 0 1 0 15 0 a7.5 7.5 0 1 0 -15 0zM155.66 568.46 a7.5 7.5 0 1 0 15 0 a7.5 7.5 0 1 0 -15 0zM285.56 193.46 a7.5 7.5 0 1 0 15 0 a7.5 7.5 0 1 0 -15 0zM350.52 230.96 a7.5 7.5 0 1 0 15 0 a7.5 7.5 0 1 0 -15 0zM350.52 305.96 a7.5 7.5 0 1 0 15 0 a7.5 7.5 0 1 0 -15 0zM285.56 343.46 a7.5 7.5 0 1 0 15 0 a7.5 7.5 0 1 0 -15 0zM220.61 305.96 a7.5 7.5 0 1 0 15 0 a7.5 7.5 0 1 0 -15 0zM220.61 230.96 a7.5 7.5 0 1 0 15 0 a7.5 7.5 0 1 0 -15 0zM415.47 343.46 a7.5 7.5 0 1 0 15 0 a7.5 7.5 0 1 0 -15 0zM415.47 418.46 a7.5 7.5 0 1 0 15 0 a7.5 7.5 0 1 0 -15 0zM350.52 455.96 a7.5 7.5 0 1 0 15 0 a7.5 7.5 0 1 0 -15 0zM285.56 418.46 a7.5 7.5 0 1 0 15 0 a7.5 7.5 0 1 0 -15 0zM480.43 80.96 a7.5 7.5 0 1 0 15 0 a7.5 7.5 0 1 0 -15 0zM545.38 118.46 a7.5 7.5 0 1 0 15 0 a7.5 7.5 0 1 0 -15 0zM545.38 193.46 a7.5 7.5 0 1 0 15 0 a7.5 7.5 0 1 0 -15 0zM480.43 230.96 a7.5 7.5 0 1 0 15 0 a7.5 7.5 0 1 0 -15 0zM415.47 193.46 a7.5 7.5 0 1 0 15 0 a7.5 7.5 0 1 0 -15 0zM415.47 118.46 a7.5 7.5 0 1 0 15 0 a7.5 7.5 0 1 0 -15 0zM480.43 305.96 a7.5 7.5 0 1 0 15 0 a7.5 7.5 0 1 0 -15 0zM545.38 343.46 a7.5 7.5 0 1 0 15 0 a7.5 7.5 0 1 0 -15 0zM545.38 418.46 a7.5 7.5 0 1 0 15 0 a7.5 7.5 0 1 0 -15 0zM480.43 455.96 a7.5 7.5 0 1 0 15 0 a7.5 7.5 0 1 0 -15 0zM480.43 530.96 a7.5 7.5 0 1 0 15 0 a7.5 7.5 0 1 0 -15 0zM415.47 568.46 a7.5 7.5 0 1 0 15 0 a7.5 7.5 0 1 0 -15 0zM350.52 530.96 a7.5 7.5 0 1 0 15 0 a7.5 7.5 0 1 0 -15 0zM610.33 80.96 a7.5 7.5 0 1 0 15 0 a7.5 7.5 0 1 0 -15 0zM675.29 118.46 a7.5 7.5 0 1 0 15 0 a7.5 7.5 0 1 0 -15 0zM675.29 193.46 a7.5 7.5 0 1 0 15 0 a7.5 7.5 0 1 0 -15 0zM610.33 230.96 a7.5 7.5 0 1 0 15 0 a7.5 7.5 0 1 0 -15 0zM610.33 305.96 a7.5 7.5 0 1 0 15 0 a7.5 7.5 0 1 0 -15 0zM610.33 455.96 a7.5 7.5 0 1 0 15 0 a7.5 7.5 0 1 0 -15 0zM610.33 530.96 a7.5 7.5 0 1 0 15 0 a7.5 7.5 0 1 0 -15 0zM545.38 568.46 a7.5 7.5 0 1 0 15 0 a7.5 7.5 0 1 0 -15 0zM740.24 80.96 a7.5 7.5 0 1 0 15 0 a7.5 7.5 0 1 0 -15 0zM805.2 118.46 a7.5 7.5 0 1 0 15 0 a7.5 7.5 0 1 0 -15 0zM805.2 193.46 a7.5 7.5 0 1 0 15 0 a7.5 7.5 0 1 0 -15 0zM740.24 230.96 a7.5 7.5 0 1 0 15 0 a7.5 7.5 0 1 0 -15 0zM740.24 305.96 a7.5 7.5 0 1 0 15 0 a7.5 7.5 0 1 0 -15 0zM675.29 343.46 a7.5 7.5 0 1 0 15 0 a7.5 7.5 0 1 0 -15 0zM805.2 343.46 a7.5 7.5 0 1 0 15 0 a7.5 7.5 0 1 0 -15 0zM805.2 418.46 a7.5 7.5 0 1 0 15 0 a7.5 7.5 0 1 0 -15 0zM740.24 455.96 a7.5 7.5 0 1 0 15 0 a7.5 7.5 0 1 0 -15 0zM675.29 418.46 a7.5 7.5 0 1 0 15 0 a7.5 7.5 0 1 0 -15 0zM740.24 530.96 a7.5 7.5 0 1 0 15 0 a7.5 7.5 0 1 0 -15 0zM675.29 568.46 a7.5 7.5 0 1 0 15 0 a7.5 7.5 0 1 0 -15 0zM805.19 -31.54 a7.5 7.5 0 1 0 15 0 a7.5 7.5 0 1 0 -15 0zM870.15 5.96 a7.5 7.5 0 1 0 15 0 a7.5 7.5 0 1 0 -15 0zM870.15 80.96 a7.5 7.5 0 1 0 15 0 a7.5 7.5 0 1 0 -15 0zM805.19 118.46 a7.5 7.5 0 1 0 15 0 a7.5 7.5 0 1 0 -15 0zM740.24 5.96 a7.5 7.5 0 1 0 15 0 a7.5 7.5 0 1 0 -15 0zM935.1 -31.54 a7.5 7.5 0 1 0 15 0 a7.5 7.5 0 1 0 -15 0zM1000.06 5.96 a7.5 7.5 0 1 0 15 0 a7.5 7.5 0 1 0 -15 0zM1000.06 80.96 a7.5 7.5 0 1 0 15 0 a7.5 7.5 0 1 0 -15 0zM935.1 118.46 a7.5 7.5 0 1 0 15 0 a7.5 7.5 0 1 0 -15 0zM1065.01 118.46 a7.5 7.5 0 1 0 15 0 a7.5 7.5 0 1 0 -15 0zM1065.01 193.46 a7.5 7.5 0 1 0 15 0 a7.5 7.5 0 1 0 -15 0zM1000.06 230.96 a7.5 7.5 0 1 0 15 0 a7.5 7.5 0 1 0 -15 0zM935.1 193.46 a7.5 7.5 0 1 0 15 0 a7.5 7.5 0 1 0 -15 0zM1000.06 305.96 a7.5 7.5 0 1 0 15 0 a7.5 7.5 0 1 0 -15 0zM935.1 343.46 a7.5 7.5 0 1 0 15 0 a7.5 7.5 0 1 0 -15 0zM870.15 305.96 a7.5 7.5 0 1 0 15 0 a7.5 7.5 0 1 0 -15 0zM870.15 230.96 a7.5 7.5 0 1 0 15 0 a7.5 7.5 0 1 0 -15 0zM1065.01 343.46 a7.5 7.5 0 1 0 15 0 a7.5 7.5 0 1 0 -15 0zM1065.01 418.46 a7.5 7.5 0 1 0 15 0 a7.5 7.5 0 1 0 -15 0zM1000.06 455.96 a7.5 7.5 0 1 0 15 0 a7.5 7.5 0 1 0 -15 0zM935.1 418.46 a7.5 7.5 0 1 0 15 0 a7.5 7.5 0 1 0 -15 0zM1000.06 530.96 a7.5 7.5 0 1 0 15 0 a7.5 7.5 0 1 0 -15 0zM935.1 568.46 a7.5 7.5 0 1 0 15 0 a7.5 7.5 0 1 0 -15 0zM870.15 530.96 a7.5 7.5 0 1 0 15 0 a7.5 7.5 0 1 0 -15 0zM870.15 455.96 a7.5 7.5 0 1 0 15 0 a7.5 7.5 0 1 0 -15 0zM1065.01 568.46 a7.5 7.5 0 1 0 15 0 a7.5 7.5 0 1 0 -15 0zM1065.01 643.46 a7.5 7.5 0 1 0 15 0 a7.5 7.5 0 1 0 -15 0zM1000.06 680.96 a7.5 7.5 0 1 0 15 0 a7.5 7.5 0 1 0 -15 0zM935.1 643.46 a7.5 7.5 0 1 0 15 0 a7.5 7.5 0 1 0 -15 0zM1065.01 -31.54 a7.5 7.5 0 1 0 15 0 a7.5 7.5 0 1 0 -15 0zM1129.96 5.96 a7.5 7.5 0 1 0 15 0 a7.5 7.5 0 1 0 -15 0zM1129.96 80.96 a7.5 7.5 0 1 0 15 0 a7.5 7.5 0 1 0 -15 0zM1129.96 230.96 a7.5 7.5 0 1 0 15 0 a7.5 7.5 0 1 0 -15 0zM1129.96 305.96 a7.5 7.5 0 1 0 15 0 a7.5 7.5 0 1 0 -15 0zM1129.96 530.96 a7.5 7.5 0 1 0 15 0 a7.5 7.5 0 1 0 -15 0zM1194.92 568.46 a7.5 7.5 0 1 0 15 0 a7.5 7.5 0 1 0 -15 0zM1194.92 643.46 a7.5 7.5 0 1 0 15 0 a7.5 7.5 0 1 0 -15 0zM1129.96 680.96 a7.5 7.5 0 1 0 15 0 a7.5 7.5 0 1 0 -15 0zM1194.92 -31.54 a7.5 7.5 0 1 0 15 0 a7.5 7.5 0 1 0 -15 0zM1259.87 5.96 a7.5 7.5 0 1 0 15 0 a7.5 7.5 0 1 0 -15 0zM1259.87 80.96 a7.5 7.5 0 1 0 15 0 a7.5 7.5 0 1 0 -15 0zM1194.92 118.46 a7.5 7.5 0 1 0 15 0 a7.5 7.5 0 1 0 -15 0zM1259.87 305.96 a7.5 7.5 0 1 0 15 0 a7.5 7.5 0 1 0 -15 0zM1324.82 343.46 a7.5 7.5 0 1 0 15 0 a7.5 7.5 0 1 0 -15 0zM1324.82 418.46 a7.5 7.5 0 1 0 15 0 a7.5 7.5 0 1 0 -15 0zM1259.87 455.96 a7.5 7.5 0 1 0 15 0 a7.5 7.5 0 1 0 -15 0zM1194.92 418.46 a7.5 7.5 0 1 0 15 0 a7.5 7.5 0 1 0 -15 0zM1194.92 343.46 a7.5 7.5 0 1 0 15 0 a7.5 7.5 0 1 0 -15 0zM1259.87 530.96 a7.5 7.5 0 1 0 15 0 a7.5 7.5 0 1 0 -15 0zM1129.96 455.96 a7.5 7.5 0 1 0 15 0 a7.5 7.5 0 1 0 -15 0zM1324.83 -31.54 a7.5 7.5 0 1 0 15 0 a7.5 7.5 0 1 0 -15 0zM1389.78 5.96 a7.5 7.5 0 1 0 15 0 a7.5 7.5 0 1 0 -15 0zM1389.78 80.96 a7.5 7.5 0 1 0 15 0 a7.5 7.5 0 1 0 -15 0zM1324.83 118.46 a7.5 7.5 0 1 0 15 0 a7.5 7.5 0 1 0 -15 0zM1454.73 118.46 a7.5 7.5 0 1 0 15 0 a7.5 7.5 0 1 0 -15 0zM1454.73 193.46 a7.5 7.5 0 1 0 15 0 a7.5 7.5 0 1 0 -15 0zM1389.78 230.96 a7.5 7.5 0 1 0 15 0 a7.5 7.5 0 1 0 -15 0zM1324.83 193.46 a7.5 7.5 0 1 0 15 0 a7.5 7.5 0 1 0 -15 0zM1389.78 530.96 a7.5 7.5 0 1 0 15 0 a7.5 7.5 0 1 0 -15 0zM1454.73 568.46 a7.5 7.5 0 1 0 15 0 a7.5 7.5 0 1 0 -15 0zM1454.73 643.46 a7.5 7.5 0 1 0 15 0 a7.5 7.5 0 1 0 -15 0zM1389.78 680.96 a7.5 7.5 0 1 0 15 0 a7.5 7.5 0 1 0 -15 0zM1324.83 643.46 a7.5 7.5 0 1 0 15 0 a7.5 7.5 0 1 0 -15 0zM1324.83 568.46 a7.5 7.5 0 1 0 15 0 a7.5 7.5 0 1 0 -15 0zM1454.73 -31.54 a7.5 7.5 0 1 0 15 0 a7.5 7.5 0 1 0 -15 0zM1519.69 5.96 a7.5 7.5 0 1 0 15 0 a7.5 7.5 0 1 0 -15 0zM1519.69 80.96 a7.5 7.5 0 1 0 15 0 a7.5 7.5 0 1 0 -15 0zM1519.69 230.96 a7.5 7.5 0 1 0 15 0 a7.5 7.5 0 1 0 -15 0zM1519.69 305.96 a7.5 7.5 0 1 0 15 0 a7.5 7.5 0 1 0 -15 0zM1454.73 343.46 a7.5 7.5 0 1 0 15 0 a7.5 7.5 0 1 0 -15 0zM1389.78 305.96 a7.5 7.5 0 1 0 15 0 a7.5 7.5 0 1 0 -15 0zM1584.64 343.46 a7.5 7.5 0 1 0 15 0 a7.5 7.5 0 1 0 -15 0zM1584.64 418.46 a7.5 7.5 0 1 0 15 0 a7.5 7.5 0 1 0 -15 0zM1519.69 455.96 a7.5 7.5 0 1 0 15 0 a7.5 7.5 0 1 0 -15 0zM1454.73 418.46 a7.5 7.5 0 1 0 15 0 a7.5 7.5 0 1 0 -15 0z" fill="#03305d"></path><path d="M62.19 53.13L105.5 78.13L105.5 128.13L62.19 153.13L18.89 128.13L18.89 78.13zM62.19 203.13L105.5 228.13L105.5 278.13L62.19 303.13L18.89 278.13L18.89 228.13zM18.89 278.13L62.19 303.13L62.19 353.13L18.89 378.13L-24.41 353.13L-24.41 303.13zM62.19 503.13L105.5 528.13L105.5 578.13L62.19 603.13L18.89 578.13L18.89 528.13zM148.8 53.13L192.1 78.13L192.1 128.13L148.8 153.13L105.5 128.13L105.5 78.13zM105.5 128.13L148.8 153.13L148.8 203.13L105.5 228.13L62.19 203.13L62.19 153.13zM148.8 503.13L192.1 528.13L192.1 578.13L148.8 603.13L105.5 578.13L105.5 528.13zM235.4 53.13L278.7 78.13L278.7 128.13L235.4 153.13L192.1 128.13L192.1 78.13zM235.4 203.13L278.7 228.13L278.7 278.13L235.4 303.13L192.1 278.13L192.1 228.13zM235.4 353.13L278.7 378.13L278.7 428.13L235.4 453.13L192.1 428.13L192.1 378.13zM192.1 428.13L235.4 453.13L235.4 503.13L192.1 528.13L148.8 503.13L148.8 453.13zM235.4 503.13L278.7 528.13L278.7 578.13L235.4 603.13L192.1 578.13L192.1 528.13zM278.7 -21.87L322.01 3.13L322.01 53.13L278.7 78.13L235.4 53.13L235.4 3.13zM322.01 203.13L365.31 228.13L365.31 278.13L322.01 303.13L278.7 278.13L278.7 228.13zM278.7 278.13L322.01 303.13L322.01 353.13L278.7 378.13L235.4 353.13L235.4 303.13zM365.31 -21.87L408.61 3.13L408.61 53.13L365.31 78.13L322.01 53.13L322.01 3.13zM408.61 53.13L451.92 78.13L451.92 128.13L408.61 153.13L365.31 128.13L365.31 78.13zM365.31 278.13L408.61 303.13L408.61 353.13L365.31 378.13L322.01 353.13L322.01 303.13zM365.31 428.13L408.61 453.13L408.61 503.13L365.31 528.13L322.01 503.13L322.01 453.13zM495.22 203.13L538.52 228.13L538.52 278.13L495.22 303.13L451.92 278.13L451.92 228.13zM451.92 278.13L495.22 303.13L495.22 353.13L451.92 378.13L408.61 353.13L408.61 303.13zM495.22 503.13L538.52 528.13L538.52 578.13L495.22 603.13L451.92 578.13L451.92 528.13zM538.52 -21.87L581.82 3.13L581.82 53.13L538.52 78.13L495.22 53.13L495.22 3.13zM538.52 278.13L581.82 303.13L581.82 353.13L538.52 378.13L495.22 353.13L495.22 303.13zM581.82 503.13L625.13 528.13L625.13 578.13L581.82 603.13L538.52 578.13L538.52 528.13zM625.13 -21.87L668.43 3.13L668.43 53.13L625.13 78.13L581.82 53.13L581.82 3.13zM625.13 128.13L668.43 153.13L668.43 203.13L625.13 228.13L581.82 203.13L581.82 153.13zM625.13 278.13L668.43 303.13L668.43 353.13L625.13 378.13L581.82 353.13L581.82 303.13zM668.43 353.13L711.73 378.13L711.73 428.13L668.43 453.13L625.13 428.13L625.13 378.13zM755.03 53.13L798.34 78.13L798.34 128.13L755.03 153.13L711.73 128.13L711.73 78.13zM755.03 203.13L798.34 228.13L798.34 278.13L755.03 303.13L711.73 278.13L711.73 228.13zM841.64 53.13L884.94 78.13L884.94 128.13L841.64 153.13L798.34 128.13L798.34 78.13zM798.34 278.13L841.64 303.13L841.64 353.13L798.34 378.13L755.03 353.13L755.03 303.13zM798.34 428.13L841.64 453.13L841.64 503.13L798.34 528.13L755.03 503.13L755.03 453.13zM928.24 53.13L971.55 78.13L971.55 128.13L928.24 153.13L884.94 128.13L884.94 78.13zM928.24 203.13L971.55 228.13L971.55 278.13L928.24 303.13L884.94 278.13L884.94 228.13zM884.94 278.13L928.24 303.13L928.24 353.13L884.94 378.13L841.64 353.13L841.64 303.13zM884.94 428.13L928.24 453.13L928.24 503.13L884.94 528.13L841.64 503.13L841.64 453.13zM971.55 -21.87L1014.85 3.13L1014.85 53.13L971.55 78.13L928.24 53.13L928.24 3.13zM1014.85 203.13L1058.15 228.13L1058.15 278.13L1014.85 303.13L971.55 278.13L971.55 228.13zM971.55 428.13L1014.85 453.13L1014.85 503.13L971.55 528.13L928.24 503.13L928.24 453.13zM1014.85 503.13L1058.15 528.13L1058.15 578.13L1014.85 603.13L971.55 578.13L971.55 528.13zM1101.45 53.13L1144.76 78.13L1144.76 128.13L1101.45 153.13L1058.15 128.13L1058.15 78.13zM1101.45 203.13L1144.76 228.13L1144.76 278.13L1101.45 303.13L1058.15 278.13L1058.15 228.13zM1101.45 353.13L1144.76 378.13L1144.76 428.13L1101.45 453.13L1058.15 428.13L1058.15 378.13zM1101.45 503.13L1144.76 528.13L1144.76 578.13L1101.45 603.13L1058.15 578.13L1058.15 528.13zM1144.76 128.13L1188.06 153.13L1188.06 203.13L1144.76 228.13L1101.45 203.13L1101.45 153.13zM1144.76 278.13L1188.06 303.13L1188.06 353.13L1144.76 378.13L1101.45 353.13L1101.45 303.13zM1188.06 353.13L1231.36 378.13L1231.36 428.13L1188.06 453.13L1144.76 428.13L1144.76 378.13zM1231.36 128.13L1274.66 153.13L1274.66 203.13L1231.36 228.13L1188.06 203.13L1188.06 153.13zM1274.66 203.13L1317.97 228.13L1317.97 278.13L1274.66 303.13L1231.36 278.13L1231.36 228.13zM1317.97 -21.87L1361.27 3.13L1361.27 53.13L1317.97 78.13L1274.66 53.13L1274.66 3.13zM1317.97 278.13L1361.27 303.13L1361.27 353.13L1317.97 378.13L1274.66 353.13L1274.66 303.13zM1361.27 503.13L1404.57 528.13L1404.57 578.13L1361.27 603.13L1317.97 578.13L1317.97 528.13zM1447.87 53.13L1491.18 78.13L1491.18 128.13L1447.87 153.13L1404.57 128.13L1404.57 78.13zM1447.87 203.13L1491.18 228.13L1491.18 278.13L1447.87 303.13L1404.57 278.13L1404.57 228.13zM1447.87 503.13L1491.18 528.13L1491.18 578.13L1447.87 603.13L1404.57 578.13L1404.57 528.13z" stroke="rgba(6, 80, 156, 0.93)" stroke-width="2"></path></g><defs><mask id="SvgjsMask1011"><rect width="1440" height="560" fill="#ffffff"></rect></mask></defs></svg>