<svg xmlns="http://www.w3.org/2000/svg" version="1.1" xmlns:xlink="http://www.w3.org/1999/xlink" xmlns:svgjs="http://svgjs.com/svgjs" width="1920" height="1920" preserveAspectRatio="none" viewBox="0 0 1920 1920"><g mask="url(&quot;#SvgjsMask1023&quot;)" fill="none"><rect width="1920" height="1920" x="0" y="0" fill="#0e2a47"></rect><path d="M110.45 274.26L175.41 311.76L175.41 386.76L110.45 424.26L45.5 386.76L45.5 311.76zM45.5 386.76L110.45 424.26L110.45 499.26L45.5 536.76L-19.45 499.26L-19.45 424.26zM110.45 724.26L175.41 761.76L175.41 836.76L110.45 874.26L45.5 836.76L45.5 761.76zM45.5 836.76L110.45 874.26L110.45 949.26L45.5 986.76L-19.45 949.26L-19.45 874.26zM45.5 1286.76L110.45 1324.26L110.45 1399.26L45.5 1436.76L-19.45 1399.26L-19.45 1324.26zM45.5 1736.76L110.45 1774.26L110.45 1849.26L45.5 1886.76L-19.45 1849.26L-19.45 1774.26zM110.45 1849.26L175.41 1886.76L175.41 1961.76L110.45 1999.26L45.5 1961.76L45.5 1886.76zM175.41 -63.24L240.36 -25.74L240.36 49.26L175.41 86.76L110.45 49.26L110.45 -25.74zM240.36 274.26L305.31 311.76L305.31 386.76L240.36 424.26L175.41 386.76L175.41 311.76zM175.41 386.76L240.36 424.26L240.36 499.26L175.41 536.76L110.45 499.26L110.45 424.26zM175.41 611.76L240.36 649.26L240.36 724.26L175.41 761.76L110.45 724.26L110.45 649.26zM240.36 949.26L305.31 986.76L305.31 1061.76L240.36 1099.26L175.41 1061.76L175.41 986.76zM175.41 1061.76L240.36 1099.26L240.36 1174.26L175.41 1211.76L110.45 1174.26L110.45 1099.26zM175.41 1511.76L240.36 1549.26L240.36 1624.26L175.41 1661.76L110.45 1624.26L110.45 1549.26zM305.31 -63.24L370.27 -25.74L370.27 49.26L305.31 86.76L240.36 49.26L240.36 -25.74zM370.27 49.26L435.22 86.76L435.22 161.76L370.27 199.26L305.31 161.76L305.31 86.76zM370.27 274.26L435.22 311.76L435.22 386.76L370.27 424.26L305.31 386.76L305.31 311.76zM370.27 499.26L435.22 536.76L435.22 611.76L370.27 649.26L305.31 611.76L305.31 536.76zM305.31 611.76L370.27 649.26L370.27 724.26L305.31 761.76L240.36 724.26L240.36 649.26zM305.31 1061.76L370.27 1099.26L370.27 1174.26L305.31 1211.76L240.36 1174.26L240.36 1099.26zM370.27 1174.26L435.22 1211.76L435.22 1286.76L370.27 1324.26L305.31 1286.76L305.31 1211.76zM305.31 1286.76L370.27 1324.26L370.27 1399.26L305.31 1436.76L240.36 1399.26L240.36 1324.26zM500.18 274.26L565.13 311.76L565.13 386.76L500.18 424.26L435.22 386.76L435.22 311.76zM435.22 1286.76L500.18 1324.26L500.18 1399.26L435.22 1436.76L370.27 1399.26L370.27 1324.26zM500.18 1399.26L565.13 1436.76L565.13 1511.76L500.18 1549.26L435.22 1511.76L435.22 1436.76zM500.18 1624.26L565.13 1661.76L565.13 1736.76L500.18 1774.26L435.22 1736.76L435.22 1661.76zM500.18 1849.26L565.13 1886.76L565.13 1961.76L500.18 1999.26L435.22 1961.76L435.22 1886.76zM565.13 -63.24L630.08 -25.74L630.08 49.26L565.13 86.76L500.18 49.26L500.18 -25.74zM630.08 274.26L695.04 311.76L695.04 386.76L630.08 424.26L565.13 386.76L565.13 311.76zM565.13 386.76L630.08 424.26L630.08 499.26L565.13 536.76L500.18 499.26L500.18 424.26zM630.08 724.26L695.04 761.76L695.04 836.76L630.08 874.26L565.13 836.76L565.13 761.76zM630.08 949.26L695.04 986.76L695.04 1061.76L630.08 1099.26L565.13 1061.76L565.13 986.76zM565.13 1061.76L630.08 1099.26L630.08 1174.26L565.13 1211.76L500.18 1174.26L500.18 1099.26zM630.08 1174.26L695.04 1211.76L695.04 1286.76L630.08 1324.26L565.13 1286.76L565.13 1211.76zM565.13 1511.76L630.08 1549.26L630.08 1624.26L565.13 1661.76L500.18 1624.26L500.18 1549.26zM630.08 1624.26L695.04 1661.76L695.04 1736.76L630.08 1774.26L565.13 1736.76L565.13 1661.76zM630.08 1849.26L695.04 1886.76L695.04 1961.76L630.08 1999.26L565.13 1961.76L565.13 1886.76zM759.99 274.26L824.95 311.76L824.95 386.76L759.99 424.26L695.04 386.76L695.04 311.76zM695.04 836.76L759.99 874.26L759.99 949.26L695.04 986.76L630.08 949.26L630.08 874.26zM759.99 949.26L824.95 986.76L824.95 1061.76L759.99 1099.26L695.04 1061.76L695.04 986.76zM695.04 1061.76L759.99 1099.26L759.99 1174.26L695.04 1211.76L630.08 1174.26L630.08 1099.26zM759.99 1174.26L824.95 1211.76L824.95 1286.76L759.99 1324.26L695.04 1286.76L695.04 1211.76zM759.99 1399.26L824.95 1436.76L824.95 1511.76L759.99 1549.26L695.04 1511.76L695.04 1436.76zM695.04 1736.76L759.99 1774.26L759.99 1849.26L695.04 1886.76L630.08 1849.26L630.08 1774.26zM824.94 -63.24L889.9 -25.74L889.9 49.26L824.94 86.76L759.99 49.26L759.99 -25.74zM889.9 49.26L954.85 86.76L954.85 161.76L889.9 199.26L824.94 161.76L824.94 86.76zM889.9 274.26L954.85 311.76L954.85 386.76L889.9 424.26L824.94 386.76L824.94 311.76zM824.94 611.76L889.9 649.26L889.9 724.26L824.94 761.76L759.99 724.26L759.99 649.26zM889.9 1399.26L954.85 1436.76L954.85 1511.76L889.9 1549.26L824.94 1511.76L824.94 1436.76zM824.94 1511.76L889.9 1549.26L889.9 1624.26L824.94 1661.76L759.99 1624.26L759.99 1549.26zM889.9 1849.26L954.85 1886.76L954.85 1961.76L889.9 1999.26L824.94 1961.76L824.94 1886.76zM1019.81 49.26L1084.76 86.76L1084.76 161.76L1019.81 199.26L954.85 161.76L954.85 86.76zM954.85 386.76L1019.81 424.26L1019.81 499.26L954.85 536.76L889.9 499.26L889.9 424.26zM1019.81 499.26L1084.76 536.76L1084.76 611.76L1019.81 649.26L954.85 611.76L954.85 536.76zM1019.81 724.26L1084.76 761.76L1084.76 836.76L1019.81 874.26L954.85 836.76L954.85 761.76zM954.85 836.76L1019.81 874.26L1019.81 949.26L954.85 986.76L889.9 949.26L889.9 874.26zM1019.81 949.26L1084.76 986.76L1084.76 1061.76L1019.81 1099.26L954.85 1061.76L954.85 986.76zM1019.81 1174.26L1084.76 1211.76L1084.76 1286.76L1019.81 1324.26L954.85 1286.76L954.85 1211.76zM954.85 1286.76L1019.81 1324.26L1019.81 1399.26L954.85 1436.76L889.9 1399.26L889.9 1324.26zM954.85 1511.76L1019.81 1549.26L1019.81 1624.26L954.85 1661.76L889.9 1624.26L889.9 1549.26zM1084.76 -63.24L1149.71 -25.74L1149.71 49.26L1084.76 86.76L1019.81 49.26L1019.81 -25.74zM1149.71 49.26L1214.67 86.76L1214.67 161.76L1149.71 199.26L1084.76 161.76L1084.76 86.76zM1084.76 161.76L1149.71 199.26L1149.71 274.26L1084.76 311.76L1019.81 274.26L1019.81 199.26zM1149.71 499.26L1214.67 536.76L1214.67 611.76L1149.71 649.26L1084.76 611.76L1084.76 536.76zM1149.71 949.26L1214.67 986.76L1214.67 1061.76L1149.71 1099.26L1084.76 1061.76L1084.76 986.76zM1084.76 1511.76L1149.71 1549.26L1149.71 1624.26L1084.76 1661.76L1019.81 1624.26L1019.81 1549.26zM1149.71 1849.26L1214.67 1886.76L1214.67 1961.76L1149.71 1999.26L1084.76 1961.76L1084.76 1886.76zM1214.67 -63.24L1279.62 -25.74L1279.62 49.26L1214.67 86.76L1149.71 49.26L1149.71 -25.74zM1279.62 49.26L1344.57 86.76L1344.57 161.76L1279.62 199.26L1214.67 161.76L1214.67 86.76zM1214.67 611.76L1279.62 649.26L1279.62 724.26L1214.67 761.76L1149.71 724.26L1149.71 649.26zM1279.62 724.26L1344.57 761.76L1344.57 836.76L1279.62 874.26L1214.67 836.76L1214.67 761.76zM1214.67 1286.76L1279.62 1324.26L1279.62 1399.26L1214.67 1436.76L1149.71 1399.26L1149.71 1324.26zM1214.67 1511.76L1279.62 1549.26L1279.62 1624.26L1214.67 1661.76L1149.71 1624.26L1149.71 1549.26zM1214.67 1736.76L1279.62 1774.26L1279.62 1849.26L1214.67 1886.76L1149.71 1849.26L1149.71 1774.26zM1409.53 49.26L1474.48 86.76L1474.48 161.76L1409.53 199.26L1344.58 161.76L1344.58 86.76zM1344.58 161.76L1409.53 199.26L1409.53 274.26L1344.58 311.76L1279.62 274.26L1279.62 199.26zM1344.58 386.76L1409.53 424.26L1409.53 499.26L1344.58 536.76L1279.62 499.26L1279.62 424.26zM1344.58 611.76L1409.53 649.26L1409.53 724.26L1344.58 761.76L1279.62 724.26L1279.62 649.26zM1409.53 949.26L1474.48 986.76L1474.48 1061.76L1409.53 1099.26L1344.58 1061.76L1344.58 986.76zM1409.53 1849.26L1474.48 1886.76L1474.48 1961.76L1409.53 1999.26L1344.58 1961.76L1344.58 1886.76zM1474.48 161.76L1539.44 199.26L1539.44 274.26L1474.48 311.76L1409.53 274.26L1409.53 199.26zM1474.48 386.76L1539.44 424.26L1539.44 499.26L1474.48 536.76L1409.53 499.26L1409.53 424.26zM1474.48 611.76L1539.44 649.26L1539.44 724.26L1474.48 761.76L1409.53 724.26L1409.53 649.26zM1474.48 836.76L1539.44 874.26L1539.44 949.26L1474.48 986.76L1409.53 949.26L1409.53 874.26zM1539.44 949.26L1604.39 986.76L1604.39 1061.76L1539.44 1099.26L1474.48 1061.76L1474.48 986.76zM1474.48 1061.76L1539.44 1099.26L1539.44 1174.26L1474.48 1211.76L1409.53 1174.26L1409.53 1099.26zM1539.44 1174.26L1604.39 1211.76L1604.39 1286.76L1539.44 1324.26L1474.48 1286.76L1474.48 1211.76zM1474.48 1286.76L1539.44 1324.26L1539.44 1399.26L1474.48 1436.76L1409.53 1399.26L1409.53 1324.26zM1539.44 1399.26L1604.39 1436.76L1604.39 1511.76L1539.44 1549.26L1474.48 1511.76L1474.48 1436.76zM1539.44 1624.26L1604.39 1661.76L1604.39 1736.76L1539.44 1774.26L1474.48 1736.76L1474.48 1661.76zM1604.39 -63.24L1669.34 -25.74L1669.34 49.26L1604.39 86.76L1539.44 49.26L1539.44 -25.74zM1669.34 274.26L1734.3 311.76L1734.3 386.76L1669.34 424.26L1604.39 386.76L1604.39 311.76zM1669.34 499.26L1734.3 536.76L1734.3 611.76L1669.34 649.26L1604.39 611.76L1604.39 536.76zM1604.39 611.76L1669.34 649.26L1669.34 724.26L1604.39 761.76L1539.44 724.26L1539.44 649.26zM1604.39 1061.76L1669.34 1099.26L1669.34 1174.26L1604.39 1211.76L1539.44 1174.26L1539.44 1099.26zM1604.39 1511.76L1669.34 1549.26L1669.34 1624.26L1604.39 1661.76L1539.44 1624.26L1539.44 1549.26zM1604.39 1736.76L1669.34 1774.26L1669.34 1849.26L1604.39 1886.76L1539.44 1849.26L1539.44 1774.26zM1669.34 1849.26L1734.3 1886.76L1734.3 1961.76L1669.34 1999.26L1604.39 1961.76L1604.39 1886.76zM1799.25 49.26L1864.2 86.76L1864.2 161.76L1799.25 199.26L1734.3 161.76L1734.3 86.76zM1734.3 386.76L1799.25 424.26L1799.25 499.26L1734.3 536.76L1669.34 499.26L1669.34 424.26zM1799.25 499.26L1864.2 536.76L1864.2 611.76L1799.25 649.26L1734.3 611.76L1734.3 536.76zM1734.3 611.76L1799.25 649.26L1799.25 724.26L1734.3 761.76L1669.34 724.26L1669.34 649.26zM1799.25 724.26L1864.2 761.76L1864.2 836.76L1799.25 874.26L1734.3 836.76L1734.3 761.76zM1799.25 949.26L1864.2 986.76L1864.2 1061.76L1799.25 1099.26L1734.3 1061.76L1734.3 986.76zM1799.25 1174.26L1864.2 1211.76L1864.2 1286.76L1799.25 1324.26L1734.3 1286.76L1734.3 1211.76zM1734.3 1511.76L1799.25 1549.26L1799.25 1624.26L1734.3 1661.76L1669.34 1624.26L1669.34 1549.26zM1864.2 161.76L1929.16 199.26L1929.16 274.26L1864.2 311.76L1799.25 274.26L1799.25 199.26zM1929.16 274.26L1994.11 311.76L1994.11 386.76L1929.16 424.26L1864.2 386.76L1864.2 311.76zM1864.2 611.76L1929.16 649.26L1929.16 724.26L1864.2 761.76L1799.25 724.26L1799.25 649.26zM1864.2 836.76L1929.16 874.26L1929.16 949.26L1864.2 986.76L1799.25 949.26L1799.25 874.26zM1864.2 1061.76L1929.16 1099.26L1929.16 1174.26L1864.2 1211.76L1799.25 1174.26L1799.25 1099.26zM1864.2 1286.76L1929.16 1324.26L1929.16 1399.26L1864.2 1436.76L1799.25 1399.26L1799.25 1324.26zM1929.16 1624.26L1994.11 1661.76L1994.11 1736.76L1929.16 1774.26L1864.2 1736.76L1864.2 1661.76zM1929.16 1849.26L1994.11 1886.76L1994.11 1961.76L1929.16 1999.26L1864.2 1961.76L1864.2 1886.76z" stroke="#03305d" stroke-width="2"></path><path d="M102.95 274.26 a7.5 7.5 0 1 0 15 0 a7.5 7.5 0 1 0 -15 0zM167.91 311.76 a7.5 7.5 0 1 0 15 0 a7.5 7.5 0 1 0 -15 0zM167.91 386.76 a7.5 7.5 0 1 0 15 0 a7.5 7.5 0 1 0 -15 0zM102.95 424.26 a7.5 7.5 0 1 0 15 0 a7.5 7.5 0 1 0 -15 0zM38 386.76 a7.5 7.5 0 1 0 15 0 a7.5 7.5 0 1 0 -15 0zM38 311.76 a7.5 7.5 0 1 0 15 0 a7.5 7.5 0 1 0 -15 0zM102.95 499.26 a7.5 7.5 0 1 0 15 0 a7.5 7.5 0 1 0 -15 0zM38 536.76 a7.5 7.5 0 1 0 15 0 a7.5 7.5 0 1 0 -15 0zM-26.95 499.26 a7.5 7.5 0 1 0 15 0 a7.5 7.5 0 1 0 -15 0zM-26.95 424.26 a7.5 7.5 0 1 0 15 0 a7.5 7.5 0 1 0 -15 0zM102.95 724.26 a7.5 7.5 0 1 0 15 0 a7.5 7.5 0 1 0 -15 0zM167.91 761.76 a7.5 7.5 0 1 0 15 0 a7.5 7.5 0 1 0 -15 0zM167.91 836.76 a7.5 7.5 0 1 0 15 0 a7.5 7.5 0 1 0 -15 0zM102.95 874.26 a7.5 7.5 0 1 0 15 0 a7.5 7.5 0 1 0 -15 0zM38 836.76 a7.5 7.5 0 1 0 15 0 a7.5 7.5 0 1 0 -15 0zM38 761.76 a7.5 7.5 0 1 0 15 0 a7.5 7.5 0 1 0 -15 0zM102.95 949.26 a7.5 7.5 0 1 0 15 0 a7.5 7.5 0 1 0 -15 0zM38 986.76 a7.5 7.5 0 1 0 15 0 a7.5 7.5 0 1 0 -15 0zM-26.95 949.26 a7.5 7.5 0 1 0 15 0 a7.5 7.5 0 1 0 -15 0zM-26.95 874.26 a7.5 7.5 0 1 0 15 0 a7.5 7.5 0 1 0 -15 0zM38 1286.76 a7.5 7.5 0 1 0 15 0 a7.5 7.5 0 1 0 -15 0zM102.95 1324.26 a7.5 7.5 0 1 0 15 0 a7.5 7.5 0 1 0 -15 0zM102.95 1399.26 a7.5 7.5 0 1 0 15 0 a7.5 7.5 0 1 0 -15 0zM38 1436.76 a7.5 7.5 0 1 0 15 0 a7.5 7.5 0 1 0 -15 0zM-26.95 1399.26 a7.5 7.5 0 1 0 15 0 a7.5 7.5 0 1 0 -15 0zM-26.95 1324.26 a7.5 7.5 0 1 0 15 0 a7.5 7.5 0 1 0 -15 0zM38 1736.76 a7.5 7.5 0 1 0 15 0 a7.5 7.5 0 1 0 -15 0zM102.95 1774.26 a7.5 7.5 0 1 0 15 0 a7.5 7.5 0 1 0 -15 0zM102.95 1849.26 a7.5 7.5 0 1 0 15 0 a7.5 7.5 0 1 0 -15 0zM38 1886.76 a7.5 7.5 0 1 0 15 0 a7.5 7.5 0 1 0 -15 0zM-26.95 1849.26 a7.5 7.5 0 1 0 15 0 a7.5 7.5 0 1 0 -15 0zM-26.95 1774.26 a7.5 7.5 0 1 0 15 0 a7.5 7.5 0 1 0 -15 0zM167.91 1886.76 a7.5 7.5 0 1 0 15 0 a7.5 7.5 0 1 0 -15 0zM167.91 1961.76 a7.5 7.5 0 1 0 15 0 a7.5 7.5 0 1 0 -15 0zM102.95 1999.26 a7.5 7.5 0 1 0 15 0 a7.5 7.5 0 1 0 -15 0zM38 1961.76 a7.5 7.5 0 1 0 15 0 a7.5 7.5 0 1 0 -15 0zM167.91 -63.24 a7.5 7.5 0 1 0 15 0 a7.5 7.5 0 1 0 -15 0zM232.86 -25.74 a7.5 7.5 0 1 0 15 0 a7.5 7.5 0 1 0 -15 0zM232.86 49.26 a7.5 7.5 0 1 0 15 0 a7.5 7.5 0 1 0 -15 0zM167.91 86.76 a7.5 7.5 0 1 0 15 0 a7.5 7.5 0 1 0 -15 0zM102.95 49.26 a7.5 7.5 0 1 0 15 0 a7.5 7.5 0 1 0 -15 0zM102.95 -25.74 a7.5 7.5 0 1 0 15 0 a7.5 7.5 0 1 0 -15 0zM232.86 274.26 a7.5 7.5 0 1 0 15 0 a7.5 7.5 0 1 0 -15 0zM297.81 311.76 a7.5 7.5 0 1 0 15 0 a7.5 7.5 0 1 0 -15 0zM297.81 386.76 a7.5 7.5 0 1 0 15 0 a7.5 7.5 0 1 0 -15 0zM232.86 424.26 a7.5 7.5 0 1 0 15 0 a7.5 7.5 0 1 0 -15 0zM232.86 499.26 a7.5 7.5 0 1 0 15 0 a7.5 7.5 0 1 0 -15 0zM167.91 536.76 a7.5 7.5 0 1 0 15 0 a7.5 7.5 0 1 0 -15 0zM167.91 611.76 a7.5 7.5 0 1 0 15 0 a7.5 7.5 0 1 0 -15 0zM232.86 649.26 a7.5 7.5 0 1 0 15 0 a7.5 7.5 0 1 0 -15 0zM232.86 724.26 a7.5 7.5 0 1 0 15 0 a7.5 7.5 0 1 0 -15 0zM102.95 649.26 a7.5 7.5 0 1 0 15 0 a7.5 7.5 0 1 0 -15 0zM232.86 949.26 a7.5 7.5 0 1 0 15 0 a7.5 7.5 0 1 0 -15 0zM297.81 986.76 a7.5 7.5 0 1 0 15 0 a7.5 7.5 0 1 0 -15 0zM297.81 1061.76 a7.5 7.5 0 1 0 15 0 a7.5 7.5 0 1 0 -15 0zM232.86 1099.26 a7.5 7.5 0 1 0 15 0 a7.5 7.5 0 1 0 -15 0zM167.91 1061.76 a7.5 7.5 0 1 0 15 0 a7.5 7.5 0 1 0 -15 0zM167.91 986.76 a7.5 7.5 0 1 0 15 0 a7.5 7.5 0 1 0 -15 0zM232.86 1174.26 a7.5 7.5 0 1 0 15 0 a7.5 7.5 0 1 0 -15 0zM167.91 1211.76 a7.5 7.5 0 1 0 15 0 a7.5 7.5 0 1 0 -15 0zM102.95 1174.26 a7.5 7.5 0 1 0 15 0 a7.5 7.5 0 1 0 -15 0zM102.95 1099.26 a7.5 7.5 0 1 0 15 0 a7.5 7.5 0 1 0 -15 0zM167.91 1511.76 a7.5 7.5 0 1 0 15 0 a7.5 7.5 0 1 0 -15 0zM232.86 1549.26 a7.5 7.5 0 1 0 15 0 a7.5 7.5 0 1 0 -15 0zM232.86 1624.26 a7.5 7.5 0 1 0 15 0 a7.5 7.5 0 1 0 -15 0zM167.91 1661.76 a7.5 7.5 0 1 0 15 0 a7.5 7.5 0 1 0 -15 0zM102.95 1624.26 a7.5 7.5 0 1 0 15 0 a7.5 7.5 0 1 0 -15 0zM102.95 1549.26 a7.5 7.5 0 1 0 15 0 a7.5 7.5 0 1 0 -15 0zM297.81 -63.24 a7.5 7.5 0 1 0 15 0 a7.5 7.5 0 1 0 -15 0zM362.77 -25.74 a7.5 7.5 0 1 0 15 0 a7.5 7.5 0 1 0 -15 0zM362.77 49.26 a7.5 7.5 0 1 0 15 0 a7.5 7.5 0 1 0 -15 0zM297.81 86.76 a7.5 7.5 0 1 0 15 0 a7.5 7.5 0 1 0 -15 0zM427.72 86.76 a7.5 7.5 0 1 0 15 0 a7.5 7.5 0 1 0 -15 0zM427.72 161.76 a7.5 7.5 0 1 0 15 0 a7.5 7.5 0 1 0 -15 0zM362.77 199.26 a7.5 7.5 0 1 0 15 0 a7.5 7.5 0 1 0 -15 0zM297.81 161.76 a7.5 7.5 0 1 0 15 0 a7.5 7.5 0 1 0 -15 0zM362.77 274.26 a7.5 7.5 0 1 0 15 0 a7.5 7.5 0 1 0 -15 0zM427.72 311.76 a7.5 7.5 0 1 0 15 0 a7.5 7.5 0 1 0 -15 0zM427.72 386.76 a7.5 7.5 0 1 0 15 0 a7.5 7.5 0 1 0 -15 0zM362.77 424.26 a7.5 7.5 0 1 0 15 0 a7.5 7.5 0 1 0 -15 0zM362.77 499.26 a7.5 7.5 0 1 0 15 0 a7.5 7.5 0 1 0 -15 0zM427.72 536.76 a7.5 7.5 0 1 0 15 0 a7.5 7.5 0 1 0 -15 0zM427.72 611.76 a7.5 7.5 0 1 0 15 0 a7.5 7.5 0 1 0 -15 0zM362.77 649.26 a7.5 7.5 0 1 0 15 0 a7.5 7.5 0 1 0 -15 0zM297.81 611.76 a7.5 7.5 0 1 0 15 0 a7.5 7.5 0 1 0 -15 0zM297.81 536.76 a7.5 7.5 0 1 0 15 0 a7.5 7.5 0 1 0 -15 0zM362.77 724.26 a7.5 7.5 0 1 0 15 0 a7.5 7.5 0 1 0 -15 0zM297.81 761.76 a7.5 7.5 0 1 0 15 0 a7.5 7.5 0 1 0 -15 0zM362.77 1099.26 a7.5 7.5 0 1 0 15 0 a7.5 7.5 0 1 0 -15 0zM362.77 1174.26 a7.5 7.5 0 1 0 15 0 a7.5 7.5 0 1 0 -15 0zM297.81 1211.76 a7.5 7.5 0 1 0 15 0 a7.5 7.5 0 1 0 -15 0zM427.72 1211.76 a7.5 7.5 0 1 0 15 0 a7.5 7.5 0 1 0 -15 0zM427.72 1286.76 a7.5 7.5 0 1 0 15 0 a7.5 7.5 0 1 0 -15 0zM362.77 1324.26 a7.5 7.5 0 1 0 15 0 a7.5 7.5 0 1 0 -15 0zM297.81 1286.76 a7.5 7.5 0 1 0 15 0 a7.5 7.5 0 1 0 -15 0zM362.77 1399.26 a7.5 7.5 0 1 0 15 0 a7.5 7.5 0 1 0 -15 0zM297.81 1436.76 a7.5 7.5 0 1 0 15 0 a7.5 7.5 0 1 0 -15 0zM232.86 1399.26 a7.5 7.5 0 1 0 15 0 a7.5 7.5 0 1 0 -15 0zM232.86 1324.26 a7.5 7.5 0 1 0 15 0 a7.5 7.5 0 1 0 -15 0zM492.68 274.26 a7.5 7.5 0 1 0 15 0 a7.5 7.5 0 1 0 -15 0zM557.63 311.76 a7.5 7.5 0 1 0 15 0 a7.5 7.5 0 1 0 -15 0zM557.63 386.76 a7.5 7.5 0 1 0 15 0 a7.5 7.5 0 1 0 -15 0zM492.68 424.26 a7.5 7.5 0 1 0 15 0 a7.5 7.5 0 1 0 -15 0zM492.68 1324.26 a7.5 7.5 0 1 0 15 0 a7.5 7.5 0 1 0 -15 0zM492.68 1399.26 a7.5 7.5 0 1 0 15 0 a7.5 7.5 0 1 0 -15 0zM427.72 1436.76 a7.5 7.5 0 1 0 15 0 a7.5 7.5 0 1 0 -15 0zM557.63 1436.76 a7.5 7.5 0 1 0 15 0 a7.5 7.5 0 1 0 -15 0zM557.63 1511.76 a7.5 7.5 0 1 0 15 0 a7.5 7.5 0 1 0 -15 0zM492.68 1549.26 a7.5 7.5 0 1 0 15 0 a7.5 7.5 0 1 0 -15 0zM427.72 1511.76 a7.5 7.5 0 1 0 15 0 a7.5 7.5 0 1 0 -15 0zM492.68 1624.26 a7.5 7.5 0 1 0 15 0 a7.5 7.5 0 1 0 -15 0zM557.63 1661.76 a7.5 7.5 0 1 0 15 0 a7.5 7.5 0 1 0 -15 0zM557.63 1736.76 a7.5 7.5 0 1 0 15 0 a7.5 7.5 0 1 0 -15 0zM492.68 1774.26 a7.5 7.5 0 1 0 15 0 a7.5 7.5 0 1 0 -15 0zM427.72 1736.76 a7.5 7.5 0 1 0 15 0 a7.5 7.5 0 1 0 -15 0zM427.72 1661.76 a7.5 7.5 0 1 0 15 0 a7.5 7.5 0 1 0 -15 0zM492.68 1849.26 a7.5 7.5 0 1 0 15 0 a7.5 7.5 0 1 0 -15 0zM557.63 1886.76 a7.5 7.5 0 1 0 15 0 a7.5 7.5 0 1 0 -15 0zM557.63 1961.76 a7.5 7.5 0 1 0 15 0 a7.5 7.5 0 1 0 -15 0zM492.68 1999.26 a7.5 7.5 0 1 0 15 0 a7.5 7.5 0 1 0 -15 0zM427.72 1961.76 a7.5 7.5 0 1 0 15 0 a7.5 7.5 0 1 0 -15 0zM427.72 1886.76 a7.5 7.5 0 1 0 15 0 a7.5 7.5 0 1 0 -15 0zM557.63 -63.24 a7.5 7.5 0 1 0 15 0 a7.5 7.5 0 1 0 -15 0zM622.58 -25.74 a7.5 7.5 0 1 0 15 0 a7.5 7.5 0 1 0 -15 0zM622.58 49.26 a7.5 7.5 0 1 0 15 0 a7.5 7.5 0 1 0 -15 0zM557.63 86.76 a7.5 7.5 0 1 0 15 0 a7.5 7.5 0 1 0 -15 0zM492.68 49.26 a7.5 7.5 0 1 0 15 0 a7.5 7.5 0 1 0 -15 0zM492.68 -25.74 a7.5 7.5 0 1 0 15 0 a7.5 7.5 0 1 0 -15 0zM622.58 274.26 a7.5 7.5 0 1 0 15 0 a7.5 7.5 0 1 0 -15 0zM687.54 311.76 a7.5 7.5 0 1 0 15 0 a7.5 7.5 0 1 0 -15 0zM687.54 386.76 a7.5 7.5 0 1 0 15 0 a7.5 7.5 0 1 0 -15 0zM622.58 424.26 a7.5 7.5 0 1 0 15 0 a7.5 7.5 0 1 0 -15 0zM622.58 499.26 a7.5 7.5 0 1 0 15 0 a7.5 7.5 0 1 0 -15 0zM557.63 536.76 a7.5 7.5 0 1 0 15 0 a7.5 7.5 0 1 0 -15 0zM492.68 499.26 a7.5 7.5 0 1 0 15 0 a7.5 7.5 0 1 0 -15 0zM622.58 724.26 a7.5 7.5 0 1 0 15 0 a7.5 7.5 0 1 0 -15 0zM687.54 761.76 a7.5 7.5 0 1 0 15 0 a7.5 7.5 0 1 0 -15 0zM687.54 836.76 a7.5 7.5 0 1 0 15 0 a7.5 7.5 0 1 0 -15 0zM622.58 874.26 a7.5 7.5 0 1 0 15 0 a7.5 7.5 0 1 0 -15 0zM557.63 836.76 a7.5 7.5 0 1 0 15 0 a7.5 7.5 0 1 0 -15 0zM557.63 761.76 a7.5 7.5 0 1 0 15 0 a7.5 7.5 0 1 0 -15 0zM622.58 949.26 a7.5 7.5 0 1 0 15 0 a7.5 7.5 0 1 0 -15 0zM687.54 986.76 a7.5 7.5 0 1 0 15 0 a7.5 7.5 0 1 0 -15 0zM687.54 1061.76 a7.5 7.5 0 1 0 15 0 a7.5 7.5 0 1 0 -15 0zM622.58 1099.26 a7.5 7.5 0 1 0 15 0 a7.5 7.5 0 1 0 -15 0zM557.63 1061.76 a7.5 7.5 0 1 0 15 0 a7.5 7.5 0 1 0 -15 0zM557.63 986.76 a7.5 7.5 0 1 0 15 0 a7.5 7.5 0 1 0 -15 0zM622.58 1174.26 a7.5 7.5 0 1 0 15 0 a7.5 7.5 0 1 0 -15 0zM557.63 1211.76 a7.5 7.5 0 1 0 15 0 a7.5 7.5 0 1 0 -15 0zM492.68 1174.26 a7.5 7.5 0 1 0 15 0 a7.5 7.5 0 1 0 -15 0zM492.68 1099.26 a7.5 7.5 0 1 0 15 0 a7.5 7.5 0 1 0 -15 0zM687.54 1211.76 a7.5 7.5 0 1 0 15 0 a7.5 7.5 0 1 0 -15 0zM687.54 1286.76 a7.5 7.5 0 1 0 15 0 a7.5 7.5 0 1 0 -15 0zM622.58 1324.26 a7.5 7.5 0 1 0 15 0 a7.5 7.5 0 1 0 -15 0zM557.63 1286.76 a7.5 7.5 0 1 0 15 0 a7.5 7.5 0 1 0 -15 0zM622.58 1549.26 a7.5 7.5 0 1 0 15 0 a7.5 7.5 0 1 0 -15 0zM622.58 1624.26 a7.5 7.5 0 1 0 15 0 a7.5 7.5 0 1 0 -15 0zM687.54 1661.76 a7.5 7.5 0 1 0 15 0 a7.5 7.5 0 1 0 -15 0zM687.54 1736.76 a7.5 7.5 0 1 0 15 0 a7.5 7.5 0 1 0 -15 0zM622.58 1774.26 a7.5 7.5 0 1 0 15 0 a7.5 7.5 0 1 0 -15 0zM622.58 1849.26 a7.5 7.5 0 1 0 15 0 a7.5 7.5 0 1 0 -15 0zM687.54 1886.76 a7.5 7.5 0 1 0 15 0 a7.5 7.5 0 1 0 -15 0zM687.54 1961.76 a7.5 7.5 0 1 0 15 0 a7.5 7.5 0 1 0 -15 0zM622.58 1999.26 a7.5 7.5 0 1 0 15 0 a7.5 7.5 0 1 0 -15 0zM752.49 274.26 a7.5 7.5 0 1 0 15 0 a7.5 7.5 0 1 0 -15 0zM817.45 311.76 a7.5 7.5 0 1 0 15 0 a7.5 7.5 0 1 0 -15 0zM817.45 386.76 a7.5 7.5 0 1 0 15 0 a7.5 7.5 0 1 0 -15 0zM752.49 424.26 a7.5 7.5 0 1 0 15 0 a7.5 7.5 0 1 0 -15 0zM752.49 874.26 a7.5 7.5 0 1 0 15 0 a7.5 7.5 0 1 0 -15 0zM752.49 949.26 a7.5 7.5 0 1 0 15 0 a7.5 7.5 0 1 0 -15 0zM817.45 986.76 a7.5 7.5 0 1 0 15 0 a7.5 7.5 0 1 0 -15 0zM817.45 1061.76 a7.5 7.5 0 1 0 15 0 a7.5 7.5 0 1 0 -15 0zM752.49 1099.26 a7.5 7.5 0 1 0 15 0 a7.5 7.5 0 1 0 -15 0zM752.49 1174.26 a7.5 7.5 0 1 0 15 0 a7.5 7.5 0 1 0 -15 0zM817.45 1211.76 a7.5 7.5 0 1 0 15 0 a7.5 7.5 0 1 0 -15 0zM817.45 1286.76 a7.5 7.5 0 1 0 15 0 a7.5 7.5 0 1 0 -15 0zM752.49 1324.26 a7.5 7.5 0 1 0 15 0 a7.5 7.5 0 1 0 -15 0zM752.49 1399.26 a7.5 7.5 0 1 0 15 0 a7.5 7.5 0 1 0 -15 0zM817.45 1436.76 a7.5 7.5 0 1 0 15 0 a7.5 7.5 0 1 0 -15 0zM817.45 1511.76 a7.5 7.5 0 1 0 15 0 a7.5 7.5 0 1 0 -15 0zM752.49 1549.26 a7.5 7.5 0 1 0 15 0 a7.5 7.5 0 1 0 -15 0zM687.54 1511.76 a7.5 7.5 0 1 0 15 0 a7.5 7.5 0 1 0 -15 0zM687.54 1436.76 a7.5 7.5 0 1 0 15 0 a7.5 7.5 0 1 0 -15 0zM752.49 1774.26 a7.5 7.5 0 1 0 15 0 a7.5 7.5 0 1 0 -15 0zM752.49 1849.26 a7.5 7.5 0 1 0 15 0 a7.5 7.5 0 1 0 -15 0zM817.44 -63.24 a7.5 7.5 0 1 0 15 0 a7.5 7.5 0 1 0 -15 0zM882.4 -25.74 a7.5 7.5 0 1 0 15 0 a7.5 7.5 0 1 0 -15 0zM882.4 49.26 a7.5 7.5 0 1 0 15 0 a7.5 7.5 0 1 0 -15 0zM817.44 86.76 a7.5 7.5 0 1 0 15 0 a7.5 7.5 0 1 0 -15 0zM752.49 49.26 a7.5 7.5 0 1 0 15 0 a7.5 7.5 0 1 0 -15 0zM752.49 -25.74 a7.5 7.5 0 1 0 15 0 a7.5 7.5 0 1 0 -15 0zM947.35 86.76 a7.5 7.5 0 1 0 15 0 a7.5 7.5 0 1 0 -15 0zM947.35 161.76 a7.5 7.5 0 1 0 15 0 a7.5 7.5 0 1 0 -15 0zM882.4 199.26 a7.5 7.5 0 1 0 15 0 a7.5 7.5 0 1 0 -15 0zM817.44 161.76 a7.5 7.5 0 1 0 15 0 a7.5 7.5 0 1 0 -15 0zM882.4 274.26 a7.5 7.5 0 1 0 15 0 a7.5 7.5 0 1 0 -15 0zM947.35 311.76 a7.5 7.5 0 1 0 15 0 a7.5 7.5 0 1 0 -15 0zM947.35 386.76 a7.5 7.5 0 1 0 15 0 a7.5 7.5 0 1 0 -15 0zM882.4 424.26 a7.5 7.5 0 1 0 15 0 a7.5 7.5 0 1 0 -15 0zM817.44 386.76 a7.5 7.5 0 1 0 15 0 a7.5 7.5 0 1 0 -15 0zM817.44 311.76 a7.5 7.5 0 1 0 15 0 a7.5 7.5 0 1 0 -15 0zM817.44 611.76 a7.5 7.5 0 1 0 15 0 a7.5 7.5 0 1 0 -15 0zM882.4 649.26 a7.5 7.5 0 1 0 15 0 a7.5 7.5 0 1 0 -15 0zM882.4 724.26 a7.5 7.5 0 1 0 15 0 a7.5 7.5 0 1 0 -15 0zM817.44 761.76 a7.5 7.5 0 1 0 15 0 a7.5 7.5 0 1 0 -15 0zM752.49 724.26 a7.5 7.5 0 1 0 15 0 a7.5 7.5 0 1 0 -15 0zM752.49 649.26 a7.5 7.5 0 1 0 15 0 a7.5 7.5 0 1 0 -15 0zM882.4 1399.26 a7.5 7.5 0 1 0 15 0 a7.5 7.5 0 1 0 -15 0zM947.35 1436.76 a7.5 7.5 0 1 0 15 0 a7.5 7.5 0 1 0 -15 0zM947.35 1511.76 a7.5 7.5 0 1 0 15 0 a7.5 7.5 0 1 0 -15 0zM882.4 1549.26 a7.5 7.5 0 1 0 15 0 a7.5 7.5 0 1 0 -15 0zM817.44 1511.76 a7.5 7.5 0 1 0 15 0 a7.5 7.5 0 1 0 -15 0zM817.44 1436.76 a7.5 7.5 0 1 0 15 0 a7.5 7.5 0 1 0 -15 0zM882.4 1624.26 a7.5 7.5 0 1 0 15 0 a7.5 7.5 0 1 0 -15 0zM817.44 1661.76 a7.5 7.5 0 1 0 15 0 a7.5 7.5 0 1 0 -15 0zM752.49 1624.26 a7.5 7.5 0 1 0 15 0 a7.5 7.5 0 1 0 -15 0zM882.4 1849.26 a7.5 7.5 0 1 0 15 0 a7.5 7.5 0 1 0 -15 0zM947.35 1886.76 a7.5 7.5 0 1 0 15 0 a7.5 7.5 0 1 0 -15 0zM947.35 1961.76 a7.5 7.5 0 1 0 15 0 a7.5 7.5 0 1 0 -15 0zM882.4 1999.26 a7.5 7.5 0 1 0 15 0 a7.5 7.5 0 1 0 -15 0zM817.44 1961.76 a7.5 7.5 0 1 0 15 0 a7.5 7.5 0 1 0 -15 0zM817.44 1886.76 a7.5 7.5 0 1 0 15 0 a7.5 7.5 0 1 0 -15 0zM1012.31 49.26 a7.5 7.5 0 1 0 15 0 a7.5 7.5 0 1 0 -15 0zM1077.26 86.76 a7.5 7.5 0 1 0 15 0 a7.5 7.5 0 1 0 -15 0zM1077.26 161.76 a7.5 7.5 0 1 0 15 0 a7.5 7.5 0 1 0 -15 0zM1012.31 199.26 a7.5 7.5 0 1 0 15 0 a7.5 7.5 0 1 0 -15 0zM1012.31 424.26 a7.5 7.5 0 1 0 15 0 a7.5 7.5 0 1 0 -15 0zM1012.31 499.26 a7.5 7.5 0 1 0 15 0 a7.5 7.5 0 1 0 -15 0zM947.35 536.76 a7.5 7.5 0 1 0 15 0 a7.5 7.5 0 1 0 -15 0zM882.4 499.26 a7.5 7.5 0 1 0 15 0 a7.5 7.5 0 1 0 -15 0zM1077.26 536.76 a7.5 7.5 0 1 0 15 0 a7.5 7.5 0 1 0 -15 0zM1077.26 611.76 a7.5 7.5 0 1 0 15 0 a7.5 7.5 0 1 0 -15 0zM1012.31 649.26 a7.5 7.5 0 1 0 15 0 a7.5 7.5 0 1 0 -15 0zM947.35 611.76 a7.5 7.5 0 1 0 15 0 a7.5 7.5 0 1 0 -15 0zM1012.31 724.26 a7.5 7.5 0 1 0 15 0 a7.5 7.5 0 1 0 -15 0zM1077.26 761.76 a7.5 7.5 0 1 0 15 0 a7.5 7.5 0 1 0 -15 0zM1077.26 836.76 a7.5 7.5 0 1 0 15 0 a7.5 7.5 0 1 0 -15 0zM1012.31 874.26 a7.5 7.5 0 1 0 15 0 a7.5 7.5 0 1 0 -15 0zM947.35 836.76 a7.5 7.5 0 1 0 15 0 a7.5 7.5 0 1 0 -15 0zM947.35 761.76 a7.5 7.5 0 1 0 15 0 a7.5 7.5 0 1 0 -15 0zM1012.31 949.26 a7.5 7.5 0 1 0 15 0 a7.5 7.5 0 1 0 -15 0zM947.35 986.76 a7.5 7.5 0 1 0 15 0 a7.5 7.5 0 1 0 -15 0zM882.4 949.26 a7.5 7.5 0 1 0 15 0 a7.5 7.5 0 1 0 -15 0zM882.4 874.26 a7.5 7.5 0 1 0 15 0 a7.5 7.5 0 1 0 -15 0zM1077.26 986.76 a7.5 7.5 0 1 0 15 0 a7.5 7.5 0 1 0 -15 0zM1077.26 1061.76 a7.5 7.5 0 1 0 15 0 a7.5 7.5 0 1 0 -15 0zM1012.31 1099.26 a7.5 7.5 0 1 0 15 0 a7.5 7.5 0 1 0 -15 0zM947.35 1061.76 a7.5 7.5 0 1 0 15 0 a7.5 7.5 0 1 0 -15 0zM1012.31 1174.26 a7.5 7.5 0 1 0 15 0 a7.5 7.5 0 1 0 -15 0zM1077.26 1211.76 a7.5 7.5 0 1 0 15 0 a7.5 7.5 0 1 0 -15 0zM1077.26 1286.76 a7.5 7.5 0 1 0 15 0 a7.5 7.5 0 1 0 -15 0zM1012.31 1324.26 a7.5 7.5 0 1 0 15 0 a7.5 7.5 0 1 0 -15 0zM947.35 1286.76 a7.5 7.5 0 1 0 15 0 a7.5 7.5 0 1 0 -15 0zM947.35 1211.76 a7.5 7.5 0 1 0 15 0 a7.5 7.5 0 1 0 -15 0zM1012.31 1399.26 a7.5 7.5 0 1 0 15 0 a7.5 7.5 0 1 0 -15 0zM882.4 1324.26 a7.5 7.5 0 1 0 15 0 a7.5 7.5 0 1 0 -15 0zM1012.31 1549.26 a7.5 7.5 0 1 0 15 0 a7.5 7.5 0 1 0 -15 0zM1012.31 1624.26 a7.5 7.5 0 1 0 15 0 a7.5 7.5 0 1 0 -15 0zM947.35 1661.76 a7.5 7.5 0 1 0 15 0 a7.5 7.5 0 1 0 -15 0zM1077.26 -63.24 a7.5 7.5 0 1 0 15 0 a7.5 7.5 0 1 0 -15 0zM1142.21 -25.74 a7.5 7.5 0 1 0 15 0 a7.5 7.5 0 1 0 -15 0zM1142.21 49.26 a7.5 7.5 0 1 0 15 0 a7.5 7.5 0 1 0 -15 0zM1012.31 -25.74 a7.5 7.5 0 1 0 15 0 a7.5 7.5 0 1 0 -15 0zM1207.17 86.76 a7.5 7.5 0 1 0 15 0 a7.5 7.5 0 1 0 -15 0zM1207.17 161.76 a7.5 7.5 0 1 0 15 0 a7.5 7.5 0 1 0 -15 0zM1142.21 199.26 a7.5 7.5 0 1 0 15 0 a7.5 7.5 0 1 0 -15 0zM1142.21 274.26 a7.5 7.5 0 1 0 15 0 a7.5 7.5 0 1 0 -15 0zM1077.26 311.76 a7.5 7.5 0 1 0 15 0 a7.5 7.5 0 1 0 -15 0zM1012.31 274.26 a7.5 7.5 0 1 0 15 0 a7.5 7.5 0 1 0 -15 0zM1142.21 499.26 a7.5 7.5 0 1 0 15 0 a7.5 7.5 0 1 0 -15 0zM1207.17 536.76 a7.5 7.5 0 1 0 15 0 a7.5 7.5 0 1 0 -15 0zM1207.17 611.76 a7.5 7.5 0 1 0 15 0 a7.5 7.5 0 1 0 -15 0zM1142.21 649.26 a7.5 7.5 0 1 0 15 0 a7.5 7.5 0 1 0 -15 0zM1142.21 949.26 a7.5 7.5 0 1 0 15 0 a7.5 7.5 0 1 0 -15 0zM1207.17 986.76 a7.5 7.5 0 1 0 15 0 a7.5 7.5 0 1 0 -15 0zM1207.17 1061.76 a7.5 7.5 0 1 0 15 0 a7.5 7.5 0 1 0 -15 0zM1142.21 1099.26 a7.5 7.5 0 1 0 15 0 a7.5 7.5 0 1 0 -15 0zM1077.26 1511.76 a7.5 7.5 0 1 0 15 0 a7.5 7.5 0 1 0 -15 0zM1142.21 1549.26 a7.5 7.5 0 1 0 15 0 a7.5 7.5 0 1 0 -15 0zM1142.21 1624.26 a7.5 7.5 0 1 0 15 0 a7.5 7.5 0 1 0 -15 0zM1077.26 1661.76 a7.5 7.5 0 1 0 15 0 a7.5 7.5 0 1 0 -15 0zM1142.21 1849.26 a7.5 7.5 0 1 0 15 0 a7.5 7.5 0 1 0 -15 0zM1207.17 1886.76 a7.5 7.5 0 1 0 15 0 a7.5 7.5 0 1 0 -15 0zM1207.17 1961.76 a7.5 7.5 0 1 0 15 0 a7.5 7.5 0 1 0 -15 0zM1142.21 1999.26 a7.5 7.5 0 1 0 15 0 a7.5 7.5 0 1 0 -15 0zM1077.26 1961.76 a7.5 7.5 0 1 0 15 0 a7.5 7.5 0 1 0 -15 0zM1077.26 1886.76 a7.5 7.5 0 1 0 15 0 a7.5 7.5 0 1 0 -15 0zM1207.17 -63.24 a7.5 7.5 0 1 0 15 0 a7.5 7.5 0 1 0 -15 0zM1272.12 -25.74 a7.5 7.5 0 1 0 15 0 a7.5 7.5 0 1 0 -15 0zM1272.12 49.26 a7.5 7.5 0 1 0 15 0 a7.5 7.5 0 1 0 -15 0zM1337.07 86.76 a7.5 7.5 0 1 0 15 0 a7.5 7.5 0 1 0 -15 0zM1337.07 161.76 a7.5 7.5 0 1 0 15 0 a7.5 7.5 0 1 0 -15 0zM1272.12 199.26 a7.5 7.5 0 1 0 15 0 a7.5 7.5 0 1 0 -15 0zM1272.12 649.26 a7.5 7.5 0 1 0 15 0 a7.5 7.5 0 1 0 -15 0zM1272.12 724.26 a7.5 7.5 0 1 0 15 0 a7.5 7.5 0 1 0 -15 0zM1207.17 761.76 a7.5 7.5 0 1 0 15 0 a7.5 7.5 0 1 0 -15 0zM1142.21 724.26 a7.5 7.5 0 1 0 15 0 a7.5 7.5 0 1 0 -15 0zM1337.07 761.76 a7.5 7.5 0 1 0 15 0 a7.5 7.5 0 1 0 -15 0zM1337.07 836.76 a7.5 7.5 0 1 0 15 0 a7.5 7.5 0 1 0 -15 0zM1272.12 874.26 a7.5 7.5 0 1 0 15 0 a7.5 7.5 0 1 0 -15 0zM1207.17 836.76 a7.5 7.5 0 1 0 15 0 a7.5 7.5 0 1 0 -15 0zM1207.17 1286.76 a7.5 7.5 0 1 0 15 0 a7.5 7.5 0 1 0 -15 0zM1272.12 1324.26 a7.5 7.5 0 1 0 15 0 a7.5 7.5 0 1 0 -15 0zM1272.12 1399.26 a7.5 7.5 0 1 0 15 0 a7.5 7.5 0 1 0 -15 0zM1207.17 1436.76 a7.5 7.5 0 1 0 15 0 a7.5 7.5 0 1 0 -15 0zM1142.21 1399.26 a7.5 7.5 0 1 0 15 0 a7.5 7.5 0 1 0 -15 0zM1142.21 1324.26 a7.5 7.5 0 1 0 15 0 a7.5 7.5 0 1 0 -15 0zM1207.17 1511.76 a7.5 7.5 0 1 0 15 0 a7.5 7.5 0 1 0 -15 0zM1272.12 1549.26 a7.5 7.5 0 1 0 15 0 a7.5 7.5 0 1 0 -15 0zM1272.12 1624.26 a7.5 7.5 0 1 0 15 0 a7.5 7.5 0 1 0 -15 0zM1207.17 1661.76 a7.5 7.5 0 1 0 15 0 a7.5 7.5 0 1 0 -15 0zM1207.17 1736.76 a7.5 7.5 0 1 0 15 0 a7.5 7.5 0 1 0 -15 0zM1272.12 1774.26 a7.5 7.5 0 1 0 15 0 a7.5 7.5 0 1 0 -15 0zM1272.12 1849.26 a7.5 7.5 0 1 0 15 0 a7.5 7.5 0 1 0 -15 0zM1142.21 1774.26 a7.5 7.5 0 1 0 15 0 a7.5 7.5 0 1 0 -15 0zM1402.03 49.26 a7.5 7.5 0 1 0 15 0 a7.5 7.5 0 1 0 -15 0zM1466.98 86.76 a7.5 7.5 0 1 0 15 0 a7.5 7.5 0 1 0 -15 0zM1466.98 161.76 a7.5 7.5 0 1 0 15 0 a7.5 7.5 0 1 0 -15 0zM1402.03 199.26 a7.5 7.5 0 1 0 15 0 a7.5 7.5 0 1 0 -15 0zM1337.08 161.76 a7.5 7.5 0 1 0 15 0 a7.5 7.5 0 1 0 -15 0zM1337.08 86.76 a7.5 7.5 0 1 0 15 0 a7.5 7.5 0 1 0 -15 0zM1402.03 274.26 a7.5 7.5 0 1 0 15 0 a7.5 7.5 0 1 0 -15 0zM1337.08 311.76 a7.5 7.5 0 1 0 15 0 a7.5 7.5 0 1 0 -15 0zM1272.12 274.26 a7.5 7.5 0 1 0 15 0 a7.5 7.5 0 1 0 -15 0zM1337.08 386.76 a7.5 7.5 0 1 0 15 0 a7.5 7.5 0 1 0 -15 0zM1402.03 424.26 a7.5 7.5 0 1 0 15 0 a7.5 7.5 0 1 0 -15 0zM1402.03 499.26 a7.5 7.5 0 1 0 15 0 a7.5 7.5 0 1 0 -15 0zM1337.08 536.76 a7.5 7.5 0 1 0 15 0 a7.5 7.5 0 1 0 -15 0zM1272.12 499.26 a7.5 7.5 0 1 0 15 0 a7.5 7.5 0 1 0 -15 0zM1272.12 424.26 a7.5 7.5 0 1 0 15 0 a7.5 7.5 0 1 0 -15 0zM1337.08 611.76 a7.5 7.5 0 1 0 15 0 a7.5 7.5 0 1 0 -15 0zM1402.03 649.26 a7.5 7.5 0 1 0 15 0 a7.5 7.5 0 1 0 -15 0zM1402.03 724.26 a7.5 7.5 0 1 0 15 0 a7.5 7.5 0 1 0 -15 0zM1337.08 761.76 a7.5 7.5 0 1 0 15 0 a7.5 7.5 0 1 0 -15 0zM1402.03 949.26 a7.5 7.5 0 1 0 15 0 a7.5 7.5 0 1 0 -15 0zM1466.98 986.76 a7.5 7.5 0 1 0 15 0 a7.5 7.5 0 1 0 -15 0zM1466.98 1061.76 a7.5 7.5 0 1 0 15 0 a7.5 7.5 0 1 0 -15 0zM1402.03 1099.26 a7.5 7.5 0 1 0 15 0 a7.5 7.5 0 1 0 -15 0zM1337.08 1061.76 a7.5 7.5 0 1 0 15 0 a7.5 7.5 0 1 0 -15 0zM1337.08 986.76 a7.5 7.5 0 1 0 15 0 a7.5 7.5 0 1 0 -15 0zM1402.03 1849.26 a7.5 7.5 0 1 0 15 0 a7.5 7.5 0 1 0 -15 0zM1466.98 1886.76 a7.5 7.5 0 1 0 15 0 a7.5 7.5 0 1 0 -15 0zM1466.98 1961.76 a7.5 7.5 0 1 0 15 0 a7.5 7.5 0 1 0 -15 0zM1402.03 1999.26 a7.5 7.5 0 1 0 15 0 a7.5 7.5 0 1 0 -15 0zM1337.08 1961.76 a7.5 7.5 0 1 0 15 0 a7.5 7.5 0 1 0 -15 0zM1337.08 1886.76 a7.5 7.5 0 1 0 15 0 a7.5 7.5 0 1 0 -15 0zM1531.94 199.26 a7.5 7.5 0 1 0 15 0 a7.5 7.5 0 1 0 -15 0zM1531.94 274.26 a7.5 7.5 0 1 0 15 0 a7.5 7.5 0 1 0 -15 0zM1466.98 311.76 a7.5 7.5 0 1 0 15 0 a7.5 7.5 0 1 0 -15 0zM1466.98 386.76 a7.5 7.5 0 1 0 15 0 a7.5 7.5 0 1 0 -15 0zM1531.94 424.26 a7.5 7.5 0 1 0 15 0 a7.5 7.5 0 1 0 -15 0zM1531.94 499.26 a7.5 7.5 0 1 0 15 0 a7.5 7.5 0 1 0 -15 0zM1466.98 536.76 a7.5 7.5 0 1 0 15 0 a7.5 7.5 0 1 0 -15 0zM1466.98 611.76 a7.5 7.5 0 1 0 15 0 a7.5 7.5 0 1 0 -15 0zM1531.94 649.26 a7.5 7.5 0 1 0 15 0 a7.5 7.5 0 1 0 -15 0zM1531.94 724.26 a7.5 7.5 0 1 0 15 0 a7.5 7.5 0 1 0 -15 0zM1466.98 761.76 a7.5 7.5 0 1 0 15 0 a7.5 7.5 0 1 0 -15 0zM1466.98 836.76 a7.5 7.5 0 1 0 15 0 a7.5 7.5 0 1 0 -15 0zM1531.94 874.26 a7.5 7.5 0 1 0 15 0 a7.5 7.5 0 1 0 -15 0zM1531.94 949.26 a7.5 7.5 0 1 0 15 0 a7.5 7.5 0 1 0 -15 0zM1402.03 874.26 a7.5 7.5 0 1 0 15 0 a7.5 7.5 0 1 0 -15 0zM1596.89 986.76 a7.5 7.5 0 1 0 15 0 a7.5 7.5 0 1 0 -15 0zM1596.89 1061.76 a7.5 7.5 0 1 0 15 0 a7.5 7.5 0 1 0 -15 0zM1531.94 1099.26 a7.5 7.5 0 1 0 15 0 a7.5 7.5 0 1 0 -15 0zM1531.94 1174.26 a7.5 7.5 0 1 0 15 0 a7.5 7.5 0 1 0 -15 0zM1466.98 1211.76 a7.5 7.5 0 1 0 15 0 a7.5 7.5 0 1 0 -15 0zM1402.03 1174.26 a7.5 7.5 0 1 0 15 0 a7.5 7.5 0 1 0 -15 0zM1596.89 1211.76 a7.5 7.5 0 1 0 15 0 a7.5 7.5 0 1 0 -15 0zM1596.89 1286.76 a7.5 7.5 0 1 0 15 0 a7.5 7.5 0 1 0 -15 0zM1531.94 1324.26 a7.5 7.5 0 1 0 15 0 a7.5 7.5 0 1 0 -15 0zM1466.98 1286.76 a7.5 7.5 0 1 0 15 0 a7.5 7.5 0 1 0 -15 0zM1531.94 1399.26 a7.5 7.5 0 1 0 15 0 a7.5 7.5 0 1 0 -15 0zM1466.98 1436.76 a7.5 7.5 0 1 0 15 0 a7.5 7.5 0 1 0 -15 0zM1402.03 1399.26 a7.5 7.5 0 1 0 15 0 a7.5 7.5 0 1 0 -15 0zM1402.03 1324.26 a7.5 7.5 0 1 0 15 0 a7.5 7.5 0 1 0 -15 0zM1596.89 1436.76 a7.5 7.5 0 1 0 15 0 a7.5 7.5 0 1 0 -15 0zM1596.89 1511.76 a7.5 7.5 0 1 0 15 0 a7.5 7.5 0 1 0 -15 0zM1531.94 1549.26 a7.5 7.5 0 1 0 15 0 a7.5 7.5 0 1 0 -15 0zM1466.98 1511.76 a7.5 7.5 0 1 0 15 0 a7.5 7.5 0 1 0 -15 0zM1531.94 1624.26 a7.5 7.5 0 1 0 15 0 a7.5 7.5 0 1 0 -15 0zM1596.89 1661.76 a7.5 7.5 0 1 0 15 0 a7.5 7.5 0 1 0 -15 0zM1596.89 1736.76 a7.5 7.5 0 1 0 15 0 a7.5 7.5 0 1 0 -15 0zM1531.94 1774.26 a7.5 7.5 0 1 0 15 0 a7.5 7.5 0 1 0 -15 0zM1466.98 1736.76 a7.5 7.5 0 1 0 15 0 a7.5 7.5 0 1 0 -15 0zM1466.98 1661.76 a7.5 7.5 0 1 0 15 0 a7.5 7.5 0 1 0 -15 0zM1596.89 -63.24 a7.5 7.5 0 1 0 15 0 a7.5 7.5 0 1 0 -15 0zM1661.84 -25.74 a7.5 7.5 0 1 0 15 0 a7.5 7.5 0 1 0 -15 0zM1661.84 49.26 a7.5 7.5 0 1 0 15 0 a7.5 7.5 0 1 0 -15 0zM1596.89 86.76 a7.5 7.5 0 1 0 15 0 a7.5 7.5 0 1 0 -15 0zM1531.94 49.26 a7.5 7.5 0 1 0 15 0 a7.5 7.5 0 1 0 -15 0zM1531.94 -25.74 a7.5 7.5 0 1 0 15 0 a7.5 7.5 0 1 0 -15 0zM1661.84 274.26 a7.5 7.5 0 1 0 15 0 a7.5 7.5 0 1 0 -15 0zM1726.8 311.76 a7.5 7.5 0 1 0 15 0 a7.5 7.5 0 1 0 -15 0zM1726.8 386.76 a7.5 7.5 0 1 0 15 0 a7.5 7.5 0 1 0 -15 0zM1661.84 424.26 a7.5 7.5 0 1 0 15 0 a7.5 7.5 0 1 0 -15 0zM1596.89 386.76 a7.5 7.5 0 1 0 15 0 a7.5 7.5 0 1 0 -15 0zM1596.89 311.76 a7.5 7.5 0 1 0 15 0 a7.5 7.5 0 1 0 -15 0zM1661.84 499.26 a7.5 7.5 0 1 0 15 0 a7.5 7.5 0 1 0 -15 0zM1726.8 536.76 a7.5 7.5 0 1 0 15 0 a7.5 7.5 0 1 0 -15 0zM1726.8 611.76 a7.5 7.5 0 1 0 15 0 a7.5 7.5 0 1 0 -15 0zM1661.84 649.26 a7.5 7.5 0 1 0 15 0 a7.5 7.5 0 1 0 -15 0zM1596.89 611.76 a7.5 7.5 0 1 0 15 0 a7.5 7.5 0 1 0 -15 0zM1596.89 536.76 a7.5 7.5 0 1 0 15 0 a7.5 7.5 0 1 0 -15 0zM1661.84 724.26 a7.5 7.5 0 1 0 15 0 a7.5 7.5 0 1 0 -15 0zM1596.89 761.76 a7.5 7.5 0 1 0 15 0 a7.5 7.5 0 1 0 -15 0zM1661.84 1099.26 a7.5 7.5 0 1 0 15 0 a7.5 7.5 0 1 0 -15 0zM1661.84 1174.26 a7.5 7.5 0 1 0 15 0 a7.5 7.5 0 1 0 -15 0zM1661.84 1549.26 a7.5 7.5 0 1 0 15 0 a7.5 7.5 0 1 0 -15 0zM1661.84 1624.26 a7.5 7.5 0 1 0 15 0 a7.5 7.5 0 1 0 -15 0zM1661.84 1774.26 a7.5 7.5 0 1 0 15 0 a7.5 7.5 0 1 0 -15 0zM1661.84 1849.26 a7.5 7.5 0 1 0 15 0 a7.5 7.5 0 1 0 -15 0zM1596.89 1886.76 a7.5 7.5 0 1 0 15 0 a7.5 7.5 0 1 0 -15 0zM1531.94 1849.26 a7.5 7.5 0 1 0 15 0 a7.5 7.5 0 1 0 -15 0zM1726.8 1886.76 a7.5 7.5 0 1 0 15 0 a7.5 7.5 0 1 0 -15 0zM1726.8 1961.76 a7.5 7.5 0 1 0 15 0 a7.5 7.5 0 1 0 -15 0zM1661.84 1999.26 a7.5 7.5 0 1 0 15 0 a7.5 7.5 0 1 0 -15 0zM1596.89 1961.76 a7.5 7.5 0 1 0 15 0 a7.5 7.5 0 1 0 -15 0zM1791.75 49.26 a7.5 7.5 0 1 0 15 0 a7.5 7.5 0 1 0 -15 0zM1856.7 86.76 a7.5 7.5 0 1 0 15 0 a7.5 7.5 0 1 0 -15 0zM1856.7 161.76 a7.5 7.5 0 1 0 15 0 a7.5 7.5 0 1 0 -15 0zM1791.75 199.26 a7.5 7.5 0 1 0 15 0 a7.5 7.5 0 1 0 -15 0zM1726.8 161.76 a7.5 7.5 0 1 0 15 0 a7.5 7.5 0 1 0 -15 0zM1726.8 86.76 a7.5 7.5 0 1 0 15 0 a7.5 7.5 0 1 0 -15 0zM1791.75 424.26 a7.5 7.5 0 1 0 15 0 a7.5 7.5 0 1 0 -15 0zM1791.75 499.26 a7.5 7.5 0 1 0 15 0 a7.5 7.5 0 1 0 -15 0zM1856.7 536.76 a7.5 7.5 0 1 0 15 0 a7.5 7.5 0 1 0 -15 0zM1856.7 611.76 a7.5 7.5 0 1 0 15 0 a7.5 7.5 0 1 0 -15 0zM1791.75 649.26 a7.5 7.5 0 1 0 15 0 a7.5 7.5 0 1 0 -15 0zM1791.75 724.26 a7.5 7.5 0 1 0 15 0 a7.5 7.5 0 1 0 -15 0zM1726.8 761.76 a7.5 7.5 0 1 0 15 0 a7.5 7.5 0 1 0 -15 0zM1856.7 761.76 a7.5 7.5 0 1 0 15 0 a7.5 7.5 0 1 0 -15 0zM1856.7 836.76 a7.5 7.5 0 1 0 15 0 a7.5 7.5 0 1 0 -15 0zM1791.75 874.26 a7.5 7.5 0 1 0 15 0 a7.5 7.5 0 1 0 -15 0zM1726.8 836.76 a7.5 7.5 0 1 0 15 0 a7.5 7.5 0 1 0 -15 0zM1791.75 949.26 a7.5 7.5 0 1 0 15 0 a7.5 7.5 0 1 0 -15 0zM1856.7 986.76 a7.5 7.5 0 1 0 15 0 a7.5 7.5 0 1 0 -15 0zM1856.7 1061.76 a7.5 7.5 0 1 0 15 0 a7.5 7.5 0 1 0 -15 0zM1791.75 1099.26 a7.5 7.5 0 1 0 15 0 a7.5 7.5 0 1 0 -15 0zM1726.8 1061.76 a7.5 7.5 0 1 0 15 0 a7.5 7.5 0 1 0 -15 0zM1726.8 986.76 a7.5 7.5 0 1 0 15 0 a7.5 7.5 0 1 0 -15 0zM1791.75 1174.26 a7.5 7.5 0 1 0 15 0 a7.5 7.5 0 1 0 -15 0zM1856.7 1211.76 a7.5 7.5 0 1 0 15 0 a7.5 7.5 0 1 0 -15 0zM1856.7 1286.76 a7.5 7.5 0 1 0 15 0 a7.5 7.5 0 1 0 -15 0zM1791.75 1324.26 a7.5 7.5 0 1 0 15 0 a7.5 7.5 0 1 0 -15 0zM1726.8 1286.76 a7.5 7.5 0 1 0 15 0 a7.5 7.5 0 1 0 -15 0zM1726.8 1211.76 a7.5 7.5 0 1 0 15 0 a7.5 7.5 0 1 0 -15 0zM1726.8 1511.76 a7.5 7.5 0 1 0 15 0 a7.5 7.5 0 1 0 -15 0zM1791.75 1549.26 a7.5 7.5 0 1 0 15 0 a7.5 7.5 0 1 0 -15 0zM1791.75 1624.26 a7.5 7.5 0 1 0 15 0 a7.5 7.5 0 1 0 -15 0zM1726.8 1661.76 a7.5 7.5 0 1 0 15 0 a7.5 7.5 0 1 0 -15 0zM1921.66 199.26 a7.5 7.5 0 1 0 15 0 a7.5 7.5 0 1 0 -15 0zM1921.66 274.26 a7.5 7.5 0 1 0 15 0 a7.5 7.5 0 1 0 -15 0zM1856.7 311.76 a7.5 7.5 0 1 0 15 0 a7.5 7.5 0 1 0 -15 0zM1791.75 274.26 a7.5 7.5 0 1 0 15 0 a7.5 7.5 0 1 0 -15 0zM1986.61 311.76 a7.5 7.5 0 1 0 15 0 a7.5 7.5 0 1 0 -15 0zM1986.61 386.76 a7.5 7.5 0 1 0 15 0 a7.5 7.5 0 1 0 -15 0zM1921.66 424.26 a7.5 7.5 0 1 0 15 0 a7.5 7.5 0 1 0 -15 0zM1856.7 386.76 a7.5 7.5 0 1 0 15 0 a7.5 7.5 0 1 0 -15 0zM1921.66 649.26 a7.5 7.5 0 1 0 15 0 a7.5 7.5 0 1 0 -15 0zM1921.66 724.26 a7.5 7.5 0 1 0 15 0 a7.5 7.5 0 1 0 -15 0zM1921.66 874.26 a7.5 7.5 0 1 0 15 0 a7.5 7.5 0 1 0 -15 0zM1921.66 949.26 a7.5 7.5 0 1 0 15 0 a7.5 7.5 0 1 0 -15 0zM1921.66 1099.26 a7.5 7.5 0 1 0 15 0 a7.5 7.5 0 1 0 -15 0zM1921.66 1174.26 a7.5 7.5 0 1 0 15 0 a7.5 7.5 0 1 0 -15 0zM1921.66 1324.26 a7.5 7.5 0 1 0 15 0 a7.5 7.5 0 1 0 -15 0zM1921.66 1399.26 a7.5 7.5 0 1 0 15 0 a7.5 7.5 0 1 0 -15 0zM1856.7 1436.76 a7.5 7.5 0 1 0 15 0 a7.5 7.5 0 1 0 -15 0zM1791.75 1399.26 a7.5 7.5 0 1 0 15 0 a7.5 7.5 0 1 0 -15 0zM1921.66 1624.26 a7.5 7.5 0 1 0 15 0 a7.5 7.5 0 1 0 -15 0zM1986.61 1661.76 a7.5 7.5 0 1 0 15 0 a7.5 7.5 0 1 0 -15 0zM1986.61 1736.76 a7.5 7.5 0 1 0 15 0 a7.5 7.5 0 1 0 -15 0zM1921.66 1774.26 a7.5 7.5 0 1 0 15 0 a7.5 7.5 0 1 0 -15 0zM1856.7 1736.76 a7.5 7.5 0 1 0 15 0 a7.5 7.5 0 1 0 -15 0zM1856.7 1661.76 a7.5 7.5 0 1 0 15 0 a7.5 7.5 0 1 0 -15 0zM1921.66 1849.26 a7.5 7.5 0 1 0 15 0 a7.5 7.5 0 1 0 -15 0zM1986.61 1886.76 a7.5 7.5 0 1 0 15 0 a7.5 7.5 0 1 0 -15 0zM1986.61 1961.76 a7.5 7.5 0 1 0 15 0 a7.5 7.5 0 1 0 -15 0zM1921.66 1999.26 a7.5 7.5 0 1 0 15 0 a7.5 7.5 0 1 0 -15 0zM1856.7 1961.76 a7.5 7.5 0 1 0 15 0 a7.5 7.5 0 1 0 -15 0zM1856.7 1886.76 a7.5 7.5 0 1 0 15 0 a7.5 7.5 0 1 0 -15 0z" fill="#03305d"></path><path d="M17.3 131.02L60.6 156.02L60.6 206.02L17.3 231.02L-26 206.02L-26 156.02zM17.3 281.02L60.6 306.02L60.6 356.02L17.3 381.02L-26 356.02L-26 306.02zM17.3 431.02L60.6 456.02L60.6 506.02L17.3 531.02L-26 506.02L-26 456.02zM17.3 731.02L60.6 756.02L60.6 806.02L17.3 831.02L-26 806.02L-26 756.02zM60.6 806.02L103.91 831.02L103.91 881.02L60.6 906.02L17.3 881.02L17.3 831.02zM17.3 881.02L60.6 906.02L60.6 956.02L17.3 981.02L-26 956.02L-26 906.02zM60.6 956.02L103.91 981.02L103.91 1031.02L60.6 1056.02L17.3 1031.02L17.3 981.02zM60.6 1106.02L103.91 1131.02L103.91 1181.02L60.6 1206.02L17.3 1181.02L17.3 1131.02zM60.6 1256.02L103.91 1281.02L103.91 1331.02L60.6 1356.02L17.3 1331.02L17.3 1281.02zM17.3 1481.02L60.6 1506.02L60.6 1556.02L17.3 1581.02L-26 1556.02L-26 1506.02zM60.6 1706.02L103.91 1731.02L103.91 1781.02L60.6 1806.02L17.3 1781.02L17.3 1731.02zM103.91 -18.98L147.21 6.02L147.21 56.02L103.91 81.02L60.6 56.02L60.6 6.02zM103.91 281.02L147.21 306.02L147.21 356.02L103.91 381.02L60.6 356.02L60.6 306.02zM103.91 581.02L147.21 606.02L147.21 656.02L103.91 681.02L60.6 656.02L60.6 606.02zM147.21 806.02L190.51 831.02L190.51 881.02L147.21 906.02L103.91 881.02L103.91 831.02zM147.21 1556.02L190.51 1581.02L190.51 1631.02L147.21 1656.02L103.91 1631.02L103.91 1581.02zM147.21 1706.02L190.51 1731.02L190.51 1781.02L147.21 1806.02L103.91 1781.02L103.91 1731.02zM103.91 1781.02L147.21 1806.02L147.21 1856.02L103.91 1881.02L60.6 1856.02L60.6 1806.02zM190.51 131.02L233.81 156.02L233.81 206.02L190.51 231.02L147.21 206.02L147.21 156.02zM233.81 206.02L277.12 231.02L277.12 281.02L233.81 306.02L190.51 281.02L190.51 231.02zM233.81 356.02L277.12 381.02L277.12 431.02L233.81 456.02L190.51 431.02L190.51 381.02zM190.51 731.02L233.81 756.02L233.81 806.02L190.51 831.02L147.21 806.02L147.21 756.02zM233.81 806.02L277.12 831.02L277.12 881.02L233.81 906.02L190.51 881.02L190.51 831.02zM190.51 881.02L233.81 906.02L233.81 956.02L190.51 981.02L147.21 956.02L147.21 906.02zM233.81 1256.02L277.12 1281.02L277.12 1331.02L233.81 1356.02L190.51 1331.02L190.51 1281.02zM233.81 1406.02L277.12 1431.02L277.12 1481.02L233.81 1506.02L190.51 1481.02L190.51 1431.02zM190.51 1481.02L233.81 1506.02L233.81 1556.02L190.51 1581.02L147.21 1556.02L147.21 1506.02zM233.81 1556.02L277.12 1581.02L277.12 1631.02L233.81 1656.02L190.51 1631.02L190.51 1581.02zM233.81 1706.02L277.12 1731.02L277.12 1781.02L233.81 1806.02L190.51 1781.02L190.51 1731.02zM233.81 1856.02L277.12 1881.02L277.12 1931.02L233.81 1956.02L190.51 1931.02L190.51 1881.02zM320.42 206.02L363.72 231.02L363.72 281.02L320.42 306.02L277.12 281.02L277.12 231.02zM320.42 506.02L363.72 531.02L363.72 581.02L320.42 606.02L277.12 581.02L277.12 531.02zM320.42 656.02L363.72 681.02L363.72 731.02L320.42 756.02L277.12 731.02L277.12 681.02zM277.12 1031.02L320.42 1056.02L320.42 1106.02L277.12 1131.02L233.81 1106.02L233.81 1056.02zM320.42 1106.02L363.72 1131.02L363.72 1181.02L320.42 1206.02L277.12 1181.02L277.12 1131.02zM277.12 1181.02L320.42 1206.02L320.42 1256.02L277.12 1281.02L233.81 1256.02L233.81 1206.02zM320.42 1256.02L363.72 1281.02L363.72 1331.02L320.42 1356.02L277.12 1331.02L277.12 1281.02zM277.12 1481.02L320.42 1506.02L320.42 1556.02L277.12 1581.02L233.81 1556.02L233.81 1506.02zM320.42 1556.02L363.72 1581.02L363.72 1631.02L320.42 1656.02L277.12 1631.02L277.12 1581.02zM320.42 1706.02L363.72 1731.02L363.72 1781.02L320.42 1806.02L277.12 1781.02L277.12 1731.02zM277.12 1781.02L320.42 1806.02L320.42 1856.02L277.12 1881.02L233.81 1856.02L233.81 1806.02zM363.72 431.02L407.02 456.02L407.02 506.02L363.72 531.02L320.42 506.02L320.42 456.02zM363.72 581.02L407.02 606.02L407.02 656.02L363.72 681.02L320.42 656.02L320.42 606.02zM407.02 656.02L450.33 681.02L450.33 731.02L407.02 756.02L363.72 731.02L363.72 681.02zM363.72 881.02L407.02 906.02L407.02 956.02L363.72 981.02L320.42 956.02L320.42 906.02zM407.02 956.02L450.33 981.02L450.33 1031.02L407.02 1056.02L363.72 1031.02L363.72 981.02zM363.72 1031.02L407.02 1056.02L407.02 1106.02L363.72 1131.02L320.42 1106.02L320.42 1056.02zM407.02 1106.02L450.33 1131.02L450.33 1181.02L407.02 1206.02L363.72 1181.02L363.72 1131.02zM407.02 1556.02L450.33 1581.02L450.33 1631.02L407.02 1656.02L363.72 1631.02L363.72 1581.02zM363.72 1631.02L407.02 1656.02L407.02 1706.02L363.72 1731.02L320.42 1706.02L320.42 1656.02zM407.02 1706.02L450.33 1731.02L450.33 1781.02L407.02 1806.02L363.72 1781.02L363.72 1731.02zM407.02 1856.02L450.33 1881.02L450.33 1931.02L407.02 1956.02L363.72 1931.02L363.72 1881.02zM450.33 131.02L493.63 156.02L493.63 206.02L450.33 231.02L407.02 206.02L407.02 156.02zM493.63 356.02L536.93 381.02L536.93 431.02L493.63 456.02L450.33 431.02L450.33 381.02zM493.63 656.02L536.93 681.02L536.93 731.02L493.63 756.02L450.33 731.02L450.33 681.02zM450.33 731.02L493.63 756.02L493.63 806.02L450.33 831.02L407.02 806.02L407.02 756.02zM450.33 881.02L493.63 906.02L493.63 956.02L450.33 981.02L407.02 956.02L407.02 906.02zM493.63 956.02L536.93 981.02L536.93 1031.02L493.63 1056.02L450.33 1031.02L450.33 981.02zM493.63 1556.02L536.93 1581.02L536.93 1631.02L493.63 1656.02L450.33 1631.02L450.33 1581.02zM493.63 1706.02L536.93 1731.02L536.93 1781.02L493.63 1806.02L450.33 1781.02L450.33 1731.02zM580.23 56.02L623.53 81.02L623.53 131.02L580.23 156.02L536.93 131.02L536.93 81.02zM580.23 356.02L623.53 381.02L623.53 431.02L580.23 456.02L536.93 431.02L536.93 381.02zM580.23 806.02L623.53 831.02L623.53 881.02L580.23 906.02L536.93 881.02L536.93 831.02zM536.93 881.02L580.23 906.02L580.23 956.02L536.93 981.02L493.63 956.02L493.63 906.02zM580.23 956.02L623.53 981.02L623.53 1031.02L580.23 1056.02L536.93 1031.02L536.93 981.02zM580.23 1106.02L623.53 1131.02L623.53 1181.02L580.23 1206.02L536.93 1181.02L536.93 1131.02zM580.23 1256.02L623.53 1281.02L623.53 1331.02L580.23 1356.02L536.93 1331.02L536.93 1281.02zM536.93 1481.02L580.23 1506.02L580.23 1556.02L536.93 1581.02L493.63 1556.02L493.63 1506.02zM536.93 1781.02L580.23 1806.02L580.23 1856.02L536.93 1881.02L493.63 1856.02L493.63 1806.02zM666.84 56.02L710.14 81.02L710.14 131.02L666.84 156.02L623.53 131.02L623.53 81.02zM623.53 131.02L666.84 156.02L666.84 206.02L623.53 231.02L580.23 206.02L580.23 156.02zM623.53 281.02L666.84 306.02L666.84 356.02L623.53 381.02L580.23 356.02L580.23 306.02zM623.53 731.02L666.84 756.02L666.84 806.02L623.53 831.02L580.23 806.02L580.23 756.02zM623.53 1181.02L666.84 1206.02L666.84 1256.02L623.53 1281.02L580.23 1256.02L580.23 1206.02zM623.53 1481.02L666.84 1506.02L666.84 1556.02L623.53 1581.02L580.23 1556.02L580.23 1506.02zM666.84 1706.02L710.14 1731.02L710.14 1781.02L666.84 1806.02L623.53 1781.02L623.53 1731.02zM623.53 1931.02L666.84 1956.02L666.84 2006.02L623.53 2031.02L580.23 2006.02L580.23 1956.02zM753.44 206.02L796.75 231.02L796.75 281.02L753.44 306.02L710.14 281.02L710.14 231.02zM753.44 656.02L796.75 681.02L796.75 731.02L753.44 756.02L710.14 731.02L710.14 681.02zM710.14 1031.02L753.44 1056.02L753.44 1106.02L710.14 1131.02L666.84 1106.02L666.84 1056.02zM710.14 1181.02L753.44 1206.02L753.44 1256.02L710.14 1281.02L666.84 1256.02L666.84 1206.02zM710.14 1331.02L753.44 1356.02L753.44 1406.02L710.14 1431.02L666.84 1406.02L666.84 1356.02zM753.44 1556.02L796.75 1581.02L796.75 1631.02L753.44 1656.02L710.14 1631.02L710.14 1581.02zM753.44 1706.02L796.75 1731.02L796.75 1781.02L753.44 1806.02L710.14 1781.02L710.14 1731.02zM796.75 -18.98L840.05 6.02L840.05 56.02L796.75 81.02L753.44 56.02L753.44 6.02zM796.75 131.02L840.05 156.02L840.05 206.02L796.75 231.02L753.44 206.02L753.44 156.02zM796.75 281.02L840.05 306.02L840.05 356.02L796.75 381.02L753.44 356.02L753.44 306.02zM840.05 356.02L883.35 381.02L883.35 431.02L840.05 456.02L796.75 431.02L796.75 381.02zM840.05 956.02L883.35 981.02L883.35 1031.02L840.05 1056.02L796.75 1031.02L796.75 981.02zM840.05 1106.02L883.35 1131.02L883.35 1181.02L840.05 1206.02L796.75 1181.02L796.75 1131.02zM796.75 1181.02L840.05 1206.02L840.05 1256.02L796.75 1281.02L753.44 1256.02L753.44 1206.02zM840.05 1556.02L883.35 1581.02L883.35 1631.02L840.05 1656.02L796.75 1631.02L796.75 1581.02zM926.65 656.02L969.96 681.02L969.96 731.02L926.65 756.02L883.35 731.02L883.35 681.02zM883.35 731.02L926.65 756.02L926.65 806.02L883.35 831.02L840.05 806.02L840.05 756.02zM926.65 956.02L969.96 981.02L969.96 1031.02L926.65 1056.02L883.35 1031.02L883.35 981.02zM883.35 1031.02L926.65 1056.02L926.65 1106.02L883.35 1131.02L840.05 1106.02L840.05 1056.02zM926.65 1106.02L969.96 1131.02L969.96 1181.02L926.65 1206.02L883.35 1181.02L883.35 1131.02zM926.65 1706.02L969.96 1731.02L969.96 1781.02L926.65 1806.02L883.35 1781.02L883.35 1731.02zM883.35 1781.02L926.65 1806.02L926.65 1856.02L883.35 1881.02L840.05 1856.02L840.05 1806.02zM883.35 1931.02L926.65 1956.02L926.65 2006.02L883.35 2031.02L840.05 2006.02L840.05 1956.02zM969.96 131.02L1013.26 156.02L1013.26 206.02L969.96 231.02L926.65 206.02L926.65 156.02zM969.96 281.02L1013.26 306.02L1013.26 356.02L969.96 381.02L926.65 356.02L926.65 306.02zM1013.26 356.02L1056.56 381.02L1056.56 431.02L1013.26 456.02L969.96 431.02L969.96 381.02zM1013.26 506.02L1056.56 531.02L1056.56 581.02L1013.26 606.02L969.96 581.02L969.96 531.02zM1013.26 656.02L1056.56 681.02L1056.56 731.02L1013.26 756.02L969.96 731.02L969.96 681.02zM969.96 731.02L1013.26 756.02L1013.26 806.02L969.96 831.02L926.65 806.02L926.65 756.02zM969.96 1331.02L1013.26 1356.02L1013.26 1406.02L969.96 1431.02L926.65 1406.02L926.65 1356.02zM1013.26 1556.02L1056.56 1581.02L1056.56 1631.02L1013.26 1656.02L969.96 1631.02L969.96 1581.02zM1013.26 1706.02L1056.56 1731.02L1056.56 1781.02L1013.26 1806.02L969.96 1781.02L969.96 1731.02zM969.96 1931.02L1013.26 1956.02L1013.26 2006.02L969.96 2031.02L926.65 2006.02L926.65 1956.02zM1056.56 131.02L1099.86 156.02L1099.86 206.02L1056.56 231.02L1013.26 206.02L1013.26 156.02zM1099.86 356.02L1143.16 381.02L1143.16 431.02L1099.86 456.02L1056.56 431.02L1056.56 381.02zM1056.56 431.02L1099.86 456.02L1099.86 506.02L1056.56 531.02L1013.26 506.02L1013.26 456.02zM1099.86 506.02L1143.16 531.02L1143.16 581.02L1099.86 606.02L1056.56 581.02L1056.56 531.02zM1056.56 881.02L1099.86 906.02L1099.86 956.02L1056.56 981.02L1013.26 956.02L1013.26 906.02zM1056.56 1031.02L1099.86 1056.02L1099.86 1106.02L1056.56 1131.02L1013.26 1106.02L1013.26 1056.02zM1099.86 1556.02L1143.16 1581.02L1143.16 1631.02L1099.86 1656.02L1056.56 1631.02L1056.56 1581.02zM1056.56 1931.02L1099.86 1956.02L1099.86 2006.02L1056.56 2031.02L1013.26 2006.02L1013.26 1956.02zM1143.16 -18.98L1186.47 6.02L1186.47 56.02L1143.16 81.02L1099.86 56.02L1099.86 6.02zM1143.16 131.02L1186.47 156.02L1186.47 206.02L1143.16 231.02L1099.86 206.02L1099.86 156.02zM1186.47 356.02L1229.77 381.02L1229.77 431.02L1186.47 456.02L1143.16 431.02L1143.16 381.02zM1143.16 431.02L1186.47 456.02L1186.47 506.02L1143.16 531.02L1099.86 506.02L1099.86 456.02zM1186.47 506.02L1229.77 531.02L1229.77 581.02L1186.47 606.02L1143.16 581.02L1143.16 531.02zM1143.16 581.02L1186.47 606.02L1186.47 656.02L1143.16 681.02L1099.86 656.02L1099.86 606.02zM1143.16 1031.02L1186.47 1056.02L1186.47 1106.02L1143.16 1131.02L1099.86 1106.02L1099.86 1056.02zM1143.16 1181.02L1186.47 1206.02L1186.47 1256.02L1143.16 1281.02L1099.86 1256.02L1099.86 1206.02zM1186.47 1256.02L1229.77 1281.02L1229.77 1331.02L1186.47 1356.02L1143.16 1331.02L1143.16 1281.02zM1143.16 1331.02L1186.47 1356.02L1186.47 1406.02L1143.16 1431.02L1099.86 1406.02L1099.86 1356.02zM1143.16 1631.02L1186.47 1656.02L1186.47 1706.02L1143.16 1731.02L1099.86 1706.02L1099.86 1656.02zM1186.47 1856.02L1229.77 1881.02L1229.77 1931.02L1186.47 1956.02L1143.16 1931.02L1143.16 1881.02zM1143.16 1931.02L1186.47 1956.02L1186.47 2006.02L1143.16 2031.02L1099.86 2006.02L1099.86 1956.02zM1229.77 131.02L1273.07 156.02L1273.07 206.02L1229.77 231.02L1186.47 206.02L1186.47 156.02zM1229.77 281.02L1273.07 306.02L1273.07 356.02L1229.77 381.02L1186.47 356.02L1186.47 306.02zM1273.07 656.02L1316.38 681.02L1316.38 731.02L1273.07 756.02L1229.77 731.02L1229.77 681.02zM1229.77 731.02L1273.07 756.02L1273.07 806.02L1229.77 831.02L1186.47 806.02L1186.47 756.02zM1229.77 881.02L1273.07 906.02L1273.07 956.02L1229.77 981.02L1186.47 956.02L1186.47 906.02zM1229.77 1031.02L1273.07 1056.02L1273.07 1106.02L1229.77 1131.02L1186.47 1106.02L1186.47 1056.02zM1273.07 1106.02L1316.38 1131.02L1316.38 1181.02L1273.07 1206.02L1229.77 1181.02L1229.77 1131.02zM1273.07 1856.02L1316.38 1881.02L1316.38 1931.02L1273.07 1956.02L1229.77 1931.02L1229.77 1881.02zM1316.38 -18.98L1359.68 6.02L1359.68 56.02L1316.38 81.02L1273.07 56.02L1273.07 6.02zM1359.68 506.02L1402.98 531.02L1402.98 581.02L1359.68 606.02L1316.38 581.02L1316.38 531.02zM1316.38 581.02L1359.68 606.02L1359.68 656.02L1316.38 681.02L1273.07 656.02L1273.07 606.02zM1316.38 731.02L1359.68 756.02L1359.68 806.02L1316.38 831.02L1273.07 806.02L1273.07 756.02zM1359.68 806.02L1402.98 831.02L1402.98 881.02L1359.68 906.02L1316.38 881.02L1316.38 831.02zM1359.68 1106.02L1402.98 1131.02L1402.98 1181.02L1359.68 1206.02L1316.38 1181.02L1316.38 1131.02zM1316.38 1181.02L1359.68 1206.02L1359.68 1256.02L1316.38 1281.02L1273.07 1256.02L1273.07 1206.02zM1316.38 1481.02L1359.68 1506.02L1359.68 1556.02L1316.38 1581.02L1273.07 1556.02L1273.07 1506.02zM1316.38 1631.02L1359.68 1656.02L1359.68 1706.02L1316.38 1731.02L1273.07 1706.02L1273.07 1656.02zM1359.68 1856.02L1402.98 1881.02L1402.98 1931.02L1359.68 1956.02L1316.38 1931.02L1316.38 1881.02zM1402.98 281.02L1446.28 306.02L1446.28 356.02L1402.98 381.02L1359.68 356.02L1359.68 306.02zM1402.98 431.02L1446.28 456.02L1446.28 506.02L1402.98 531.02L1359.68 506.02L1359.68 456.02zM1402.98 731.02L1446.28 756.02L1446.28 806.02L1402.98 831.02L1359.68 806.02L1359.68 756.02zM1446.28 806.02L1489.59 831.02L1489.59 881.02L1446.28 906.02L1402.98 881.02L1402.98 831.02zM1446.28 956.02L1489.59 981.02L1489.59 1031.02L1446.28 1056.02L1402.98 1031.02L1402.98 981.02zM1446.28 1106.02L1489.59 1131.02L1489.59 1181.02L1446.28 1206.02L1402.98 1181.02L1402.98 1131.02zM1402.98 1331.02L1446.28 1356.02L1446.28 1406.02L1402.98 1431.02L1359.68 1406.02L1359.68 1356.02zM1402.98 1631.02L1446.28 1656.02L1446.28 1706.02L1402.98 1731.02L1359.68 1706.02L1359.68 1656.02zM1402.98 1781.02L1446.28 1806.02L1446.28 1856.02L1402.98 1881.02L1359.68 1856.02L1359.68 1806.02zM1446.28 1856.02L1489.59 1881.02L1489.59 1931.02L1446.28 1956.02L1402.98 1931.02L1402.98 1881.02zM1402.98 1931.02L1446.28 1956.02L1446.28 2006.02L1402.98 2031.02L1359.68 2006.02L1359.68 1956.02zM1489.59 -18.98L1532.89 6.02L1532.89 56.02L1489.59 81.02L1446.28 56.02L1446.28 6.02zM1532.89 356.02L1576.19 381.02L1576.19 431.02L1532.89 456.02L1489.59 431.02L1489.59 381.02zM1489.59 431.02L1532.89 456.02L1532.89 506.02L1489.59 531.02L1446.28 506.02L1446.28 456.02zM1532.89 506.02L1576.19 531.02L1576.19 581.02L1532.89 606.02L1489.59 581.02L1489.59 531.02zM1489.59 731.02L1532.89 756.02L1532.89 806.02L1489.59 831.02L1446.28 806.02L1446.28 756.02zM1489.59 1181.02L1532.89 1206.02L1532.89 1256.02L1489.59 1281.02L1446.28 1256.02L1446.28 1206.02zM1489.59 1331.02L1532.89 1356.02L1532.89 1406.02L1489.59 1431.02L1446.28 1406.02L1446.28 1356.02zM1489.59 1481.02L1532.89 1506.02L1532.89 1556.02L1489.59 1581.02L1446.28 1556.02L1446.28 1506.02zM1532.89 1556.02L1576.19 1581.02L1576.19 1631.02L1532.89 1656.02L1489.59 1631.02L1489.59 1581.02zM1489.59 1631.02L1532.89 1656.02L1532.89 1706.02L1489.59 1731.02L1446.28 1706.02L1446.28 1656.02zM1576.19 -18.98L1619.49 6.02L1619.49 56.02L1576.19 81.02L1532.89 56.02L1532.89 6.02zM1619.49 56.02L1662.8 81.02L1662.8 131.02L1619.49 156.02L1576.19 131.02L1576.19 81.02zM1576.19 131.02L1619.49 156.02L1619.49 206.02L1576.19 231.02L1532.89 206.02L1532.89 156.02zM1576.19 731.02L1619.49 756.02L1619.49 806.02L1576.19 831.02L1532.89 806.02L1532.89 756.02zM1576.19 881.02L1619.49 906.02L1619.49 956.02L1576.19 981.02L1532.89 956.02L1532.89 906.02zM1576.19 1181.02L1619.49 1206.02L1619.49 1256.02L1576.19 1281.02L1532.89 1256.02L1532.89 1206.02zM1619.49 1406.02L1662.8 1431.02L1662.8 1481.02L1619.49 1506.02L1576.19 1481.02L1576.19 1431.02zM1619.49 1556.02L1662.8 1581.02L1662.8 1631.02L1619.49 1656.02L1576.19 1631.02L1576.19 1581.02zM1576.19 1631.02L1619.49 1656.02L1619.49 1706.02L1576.19 1731.02L1532.89 1706.02L1532.89 1656.02zM1576.19 1931.02L1619.49 1956.02L1619.49 2006.02L1576.19 2031.02L1532.89 2006.02L1532.89 1956.02zM1706.1 356.02L1749.4 381.02L1749.4 431.02L1706.1 456.02L1662.8 431.02L1662.8 381.02zM1662.8 581.02L1706.1 606.02L1706.1 656.02L1662.8 681.02L1619.49 656.02L1619.49 606.02zM1706.1 656.02L1749.4 681.02L1749.4 731.02L1706.1 756.02L1662.8 731.02L1662.8 681.02zM1706.1 956.02L1749.4 981.02L1749.4 1031.02L1706.1 1056.02L1662.8 1031.02L1662.8 981.02zM1706.1 1106.02L1749.4 1131.02L1749.4 1181.02L1706.1 1206.02L1662.8 1181.02L1662.8 1131.02zM1662.8 1181.02L1706.1 1206.02L1706.1 1256.02L1662.8 1281.02L1619.49 1256.02L1619.49 1206.02zM1706.1 1406.02L1749.4 1431.02L1749.4 1481.02L1706.1 1506.02L1662.8 1481.02L1662.8 1431.02zM1662.8 1481.02L1706.1 1506.02L1706.1 1556.02L1662.8 1581.02L1619.49 1556.02L1619.49 1506.02zM1662.8 1631.02L1706.1 1656.02L1706.1 1706.02L1662.8 1731.02L1619.49 1706.02L1619.49 1656.02zM1749.4 -18.98L1792.7 6.02L1792.7 56.02L1749.4 81.02L1706.1 56.02L1706.1 6.02zM1792.7 506.02L1836.01 531.02L1836.01 581.02L1792.7 606.02L1749.4 581.02L1749.4 531.02zM1749.4 731.02L1792.7 756.02L1792.7 806.02L1749.4 831.02L1706.1 806.02L1706.1 756.02zM1749.4 1031.02L1792.7 1056.02L1792.7 1106.02L1749.4 1131.02L1706.1 1106.02L1706.1 1056.02zM1792.7 1256.02L1836.01 1281.02L1836.01 1331.02L1792.7 1356.02L1749.4 1331.02L1749.4 1281.02zM1749.4 1331.02L1792.7 1356.02L1792.7 1406.02L1749.4 1431.02L1706.1 1406.02L1706.1 1356.02zM1792.7 1406.02L1836.01 1431.02L1836.01 1481.02L1792.7 1506.02L1749.4 1481.02L1749.4 1431.02zM1749.4 1481.02L1792.7 1506.02L1792.7 1556.02L1749.4 1581.02L1706.1 1556.02L1706.1 1506.02zM1792.7 1706.02L1836.01 1731.02L1836.01 1781.02L1792.7 1806.02L1749.4 1781.02L1749.4 1731.02zM1749.4 1781.02L1792.7 1806.02L1792.7 1856.02L1749.4 1881.02L1706.1 1856.02L1706.1 1806.02zM1792.7 1856.02L1836.01 1881.02L1836.01 1931.02L1792.7 1956.02L1749.4 1931.02L1749.4 1881.02zM1836.01 131.02L1879.31 156.02L1879.31 206.02L1836.01 231.02L1792.7 206.02L1792.7 156.02zM1836.01 281.02L1879.31 306.02L1879.31 356.02L1836.01 381.02L1792.7 356.02L1792.7 306.02zM1879.31 356.02L1922.61 381.02L1922.61 431.02L1879.31 456.02L1836.01 431.02L1836.01 381.02zM1879.31 956.02L1922.61 981.02L1922.61 1031.02L1879.31 1056.02L1836.01 1031.02L1836.01 981.02zM1836.01 1181.02L1879.31 1206.02L1879.31 1256.02L1836.01 1281.02L1792.7 1256.02L1792.7 1206.02zM1836.01 1331.02L1879.31 1356.02L1879.31 1406.02L1836.01 1431.02L1792.7 1406.02L1792.7 1356.02zM1922.61 -18.98L1965.91 6.02L1965.91 56.02L1922.61 81.02L1879.31 56.02L1879.31 6.02zM1922.61 431.02L1965.91 456.02L1965.91 506.02L1922.61 531.02L1879.31 506.02L1879.31 456.02zM1965.91 506.02L2009.22 531.02L2009.22 581.02L1965.91 606.02L1922.61 581.02L1922.61 531.02zM1922.61 1181.02L1965.91 1206.02L1965.91 1256.02L1922.61 1281.02L1879.31 1256.02L1879.31 1206.02zM1922.61 1331.02L1965.91 1356.02L1965.91 1406.02L1922.61 1431.02L1879.31 1406.02L1879.31 1356.02zM1965.91 1406.02L2009.22 1431.02L2009.22 1481.02L1965.91 1506.02L1922.61 1481.02L1922.61 1431.02zM1922.61 1481.02L1965.91 1506.02L1965.91 1556.02L1922.61 1581.02L1879.31 1556.02L1879.31 1506.02zM1965.91 1556.02L2009.22 1581.02L2009.22 1631.02L1965.91 1656.02L1922.61 1631.02L1922.61 1581.02zM1922.61 1631.02L1965.91 1656.02L1965.91 1706.02L1922.61 1731.02L1879.31 1706.02L1879.31 1656.02zM1922.61 1931.02L1965.91 1956.02L1965.91 2006.02L1922.61 2031.02L1879.31 2006.02L1879.31 1956.02z" stroke="rgba(6, 80, 156, 0.93)" stroke-width="2"></path></g><defs><mask id="SvgjsMask1023"><rect width="1920" height="1920" fill="#ffffff"></rect></mask></defs></svg>